SplineFontDB: 3.0
FontName: Bevan
FullName: Bevan
FamilyName: Bevan
Weight: Normal
Copyright: Copyright (c) 2011 by . All rights reserved.
Version: 001.001
ItalicAngle: 0
UnderlinePosition: -205
UnderlineWidth: 102
Ascent: 1638
Descent: 410
sfntRevision: 0x00010000
LayerCount: 2
Layer: 0 0 "Back"  1
Layer: 1 0 "Fore"  0
XUID: [1021 14 500265001 10851299]
FSType: 0
OS2Version: 3
OS2_WeightWidthSlopeOnly: 0
OS2_UseTypoMetrics: 1
CreationTime: 1314018767
ModificationTime: 1327487588
PfmFamily: 17
TTFWeight: 400
TTFWidth: 5
LineGap: 0
VLineGap: 0
Panose: 2 0 0 0 0 0 0 0 0 0
OS2TypoAscent: 727
OS2TypoAOffset: 1
OS2TypoDescent: -515
OS2TypoDOffset: 1
OS2TypoLinegap: 0
OS2WinAscent: 94
OS2WinAOffset: 1
OS2WinDescent: -35
OS2WinDOffset: 1
HheadAscent: 94
HheadAOffset: 1
HheadDescent: 35
HheadDOffset: 1
OS2SubXSize: 1331
OS2SubYSize: 1228
OS2SubXOff: 0
OS2SubYOff: 153
OS2SupXSize: 1331
OS2SupYSize: 1228
OS2SupXOff: 0
OS2SupYOff: 716
OS2StrikeYSize: 102
OS2StrikeYPos: 643
OS2Vendor: 'newt'
OS2CodePages: 20000081.00000000
OS2UnicodeRanges: 00000007.00000000.00000000.00000000
Lookup: 1 0 0 "'smcp' Lowercase to Small Capitals in Latin lookup 0"  {"'smcp' Lowercase to Small Capitals in Latin lookup 0 subtable"  } ['smcp' ('latn' <'dflt' > ) ]
Lookup: 1 0 0 "'c2sc' Capitals to Small Capitals in Latin lookup 0"  {"'c2sc' Capitals to Small Capitals in Latin lookup 0 subtable"  } ['c2sc' ('latn' <'dflt' > ) ]
Lookup: 4 0 0 "'dlig' Discretionary Ligatures in Latin lookup 4"  {"'dlig' Discretionary Ligatures in Latin lookup 4-1"  } ['dlig' ('DFLT' <'dflt' > 'latn' <'dflt' > ) ]
Lookup: 1 0 0 "alt endings"  {"alt endings-t"  } []
Lookup: 4 0 0 "Numbers No"  {"'dlig' Discretionary Ligatures in Latin lookup 3-1"  } ['dlig' ('DFLT' <'dflt' > 'latn' <'dflt' > ) ]
Lookup: 6 0 0 "Contextual chains"  {"Contextual chains-No"  "Contextual chains-t.fin"  } ['dlig' ('DFLT' <'dflt' > 'latn' <'dflt' > ) ]

StartChar: macron
Encoding: 109 175 0
Width: 783
Flags: HW
LayerCount: 2
Fore
SplineSet
715 836 m 1
 715 537 l 1
 68 537 l 1
 68 836 l 1
 715 836 l 1
EndSplineSet
EndChar

StartChar: exclam
Encoding: 1 33 2
Width: 679
Flags: HW
LayerCount: 2
Fore
SplineSet
547 558 m 1
 126 556 l 1
 44 1331 l 1
 44 1630 l 1
 631 1630 l 1
 631 1331 l 1
 547 558 l 1
335 -33 m 0
 496 -33 622 55 622 212 c 0
 622 368 493 463 336 463 c 1
 334 462 l 1
 178 462 57 367 57 212 c 0
 57 58 178 -33 335 -33 c 0
EndSplineSet
EndChar

StartChar: quotedbl
Encoding: 2 34 3
Width: 1148
Flags: HW
LayerCount: 2
Fore
SplineSet
41 1624 m 1
 521 1624 l 1
 421 945 l 1
 121 945 l 1
 41 1624 l 1
628 1624 m 1
 1108 1624 l 1
 1008 945 l 1
 708 945 l 1
 628 1624 l 1
EndSplineSet
EndChar

StartChar: numbersign
Encoding: 3 35 4
Width: 1354
Flags: HW
LayerCount: 2
Fore
SplineSet
382 1246 m 1
 466 1623 l 1
 790 1623 l 1
 703 1246 l 1
 861 1246 l 1
 945 1623 l 1
 1269 1623 l 1
 1182 1246 l 1
 1322 1246 l 1
 1259 947 l 1
 1114 947 l 1
 1031 585 l 1
 1175 585 l 1
 1112 286 l 1
 962 286 l 1
 897 0 l 1
 584 0 l 1
 647 286 l 1
 483 286 l 1
 418 0 l 1
 105 0 l 1
 168 286 l 1
 32 286 l 1
 95 585 l 1
 235 585 l 1
 315 947 l 1
 179 947 l 1
 242 1246 l 1
 382 1246 l 1
552 585 m 1
 714 585 l 1
 794 947 l 1
 635 947 l 1
 552 585 l 1
EndSplineSet
EndChar

StartChar: dollar
Encoding: 4 36 5
Width: 1401
Flags: W
HStem: -29 21G<758.172 934.312> 0 488<103 426> 1117 476<939 1224> 1342.69 280.43<496.494 616 735 810.524>
VStem: 65.5127 388.487<953.925 1303.89> 103 323<0 101.687 383.255 488> 616 119<-227 -28.4424 282.327 538.1 1092.08 1338.67 1623.09 1803> 908 419<313.679 649.822>
LayerCount: 2
Fore
SplineSet
65.5127 1133.97 m 0xeb
 65.5127 1424.1 296.022 1623.12 610.054 1623.12 c 0xdb
 612.05 1623.12 614.032 1623.11 616 1623.09 c 1
 616 1803 l 1
 735 1803 l 1
 735 1608.96 l 1
 830.29 1584.22 874.42 1531.2 906 1483 c 1
 939 1593 l 1
 1224 1593 l 1
 1224 1117 l 1
 917 1117 l 1
 869.866 1258.21 818.497 1320.14 735 1338.67 c 1
 735 1060.29 l 1
 1060.58 980.555 1327 816.45 1327 480 c 0
 1327 193.807 1105.62 -29 763 -29 c 0
 753.345 -29 744.02 -28.8142 735 -28.4424 c 1
 735 -227 l 1
 616 -227 l 1
 616 -7.69922 l 1
 549.07 15.8485 500.156 58.9808 442 122 c 1
 426 0 l 1
 103 0 l 1
 103 488 l 1xe7
 425 488 l 1
 460.747 359.49 528.529 301.957 616 282.327 c 1
 616 573.599 l 1
 319.073 664.198 65.5127 773.88 65.5127 1133.97 c 0xeb
616 1342.69 m 1
 511.96 1333.21 454 1294.83 454 1233 c 0
 454 1158.01 529.912 1119.91 616 1092.08 c 1
 616 1342.69 l 1
735 275.388 m 1
 828.583 282.695 908 318.716 908 380 c 0
 908 475.593 856.299 501.207 735 538.1 c 1
 735 275.388 l 1
EndSplineSet
EndChar

StartChar: percent
Encoding: 5 37 6
Width: 2642
Flags: W
HStem: -27 260<2031.39 2178.61> 0 21G<864 1176.96> 472.5 260<463.39 610.61> 706 250<2024.59 2185.41> 1205.5 250.5<456.886 617.699> 1295.11 160.886<902.344 1336.95>
VStem: 62 354<777.169 1163.65> 658 354<777.314 1167.31> 1630 354<277.669 664.115> 2226 354<277.669 664.115>
LayerCount: 2
Fore
SplineSet
537 1205.5 m 0x2bc0
 456 1205.5 416 1118.94 416 978.5 c 0
 416 828.836 458 732.5 537 732.5 c 0
 616 732.5 658 828.836 658 978.5 c 0
 658 1118.94 618 1205.5 537 1205.5 c 0x2bc0
537 472.5 m 0
 229 472.5 62 672.351 62 967.5 c 0
 62 1241.65 241 1456 537 1456 c 2x2bc0
 1651 1456 l 1
 1805 1281 l 1
 1167 0 l 5
 864 0 l 5
 1336.95 1295.7 l 1
 902.344 1295.11 l 1x47c0
 973.377 1209.18 1012 1094.84 1012 967.5 c 0
 1012 672.351 845 472.5 537 472.5 c 0
2105 706 m 0x93c0
 2024 706 1984 619.44 1984 479 c 0
 1984 329.336 2026 233 2105 233 c 0
 2184 233 2226 329.336 2226 479 c 0
 2226 619.44 2186 706 2105 706 c 0x93c0
2105 -27 m 0
 1797 -27 1630 172.851 1630 468 c 0
 1630 742.147 1809 956 2105 956 c 0
 2401 956 2580 742.147 2580 468 c 0
 2580 172.851 2413 -27 2105 -27 c 0
EndSplineSet
LCarets2: 2 0 0 
Ligature2: "'dlig' Discretionary Ligatures in Latin lookup 4-1" zero slash zero
EndChar

StartChar: ampersand
Encoding: 6 38 7
Width: 1723
Flags: HW
LayerCount: 2
Fore
SplineSet
1142 1168 m 0
 1142 988 1072 931 974 844 c 1
 1153 669 l 1
 1180 693 l 2
 1200 711 1260 766 1260 797 c 0
 1260 820 1251 832 1233 832 c 2
 1186 832 l 1
 1186 1127 l 1
 1669 1127 l 1
 1669 838 l 1
 1559 800 1541 776 1459 694 c 2
 1282 518 l 1
 1285 517 1368 368 1505 368 c 2
 1666 368 l 1
 1666 0 l 1
 1127 0 l 1
 1127 -3 l 1
 1094 30 1036 91 953 180 c 1
 830 44 676 -30 492 -30 c 0
 235 -30 39 122 39 375 c 0
 39 609 173 726 354 804 c 1
 277 889 235 990 235 1107 c 0
 235 1374 449 1513 717 1513 c 0
 938 1513 1142 1390 1142 1168 c 0
558 584 m 1
 530 564 497 532 497 484 c 2
 497 482 l 2
 497 395 563 330 651 330 c 0
 692 330 730 343 765 370 c 1
 558 584 l 1
781 1269 m 0
 730 1269 668 1227 668 1149 c 1
 794 1020 l 1
 794 1020 886 1080 886 1148 c 0
 886 1216 849 1269 781 1269 c 0
EndSplineSet
EndChar

StartChar: quoteright
Encoding: 345 8217 8
Width: 649
Flags: HW
LayerCount: 2
Fore
SplineSet
64 1034 m 1
 63 1032 l 1
 64 1032 l 1
 64 1034 l 1
64 1032 m 1
 222 1032 254 1095 254 1255 c 1
 65 1255 l 1
 65 1621 l 1
 575 1621 l 1
 591 1518 599 1426 599 1345 c 0
 599 976 432 809 64 809 c 1
 64 1032 l 1
EndSplineSet
EndChar

StartChar: parenleft
Encoding: 8 40 9
Width: 915
Flags: HW
LayerCount: 2
Fore
SplineSet
874 -20 m 1
 345 -20 19 294 19 816 c 0
 19 1391 300 1653 879 1653 c 1
 879 1321 l 1
 877 1319 l 1
 592 1313 520 1107 520 817 c 0
 520 543 599 311 874 311 c 1
 874 -20 l 1
EndSplineSet
EndChar

StartChar: parenright
Encoding: 9 41 10
Width: 915
Flags: W
HStem: -20 331<41 206.351> 1321 331<38 214.016> 1652 1<36 38>
VStem: 395 501<524.666 1108.73>
LayerCount: 2
Fore
SplineSet
395 817 m 0xd0
 395 1107 323 1315 38 1321 c 1
 38 1652 l 1
 616 1651 896 1389 896 815 c 0
 896 291 567 -20 41 -20 c 1
 41 311 l 1
 316 311 395 543 395 817 c 0xd0
38 1652 m 1
 38 1653 l 1
 36 1652 l 1xb0
 38 1652 l 1
EndSplineSet
EndChar

StartChar: asterisk
Encoding: 10 42 11
Width: 1243
Flags: HW
LayerCount: 2
Fore
SplineSet
18 648 m 0
 18 842 351 891 509 944 c 1
 383 990 13 1057 13 1232 c 0
 13 1261 23 1293 46 1328 c 1
 36 1320 l 1
 65 1367 111 1393 163 1393 c 0
 335 1393 454 1177 540 1078 c 1
 509 1192 455 1317 455 1454 c 0
 455 1555 520 1634 616 1634 c 0
 712 1634 777 1555 777 1454 c 0
 777 1313 728 1192 693 1080 c 1
 783 1180 895 1392 1066 1392 c 0
 1156 1392 1223 1317 1223 1234 c 0
 1223 1038 889 995 733 938 c 1
 863 891 1234 829 1234 652 c 0
 1234 566 1155 480 1072 480 c 0
 900 480 781 698 693 796 c 1
 729 687 780 556 780 422 c 0
 780 321 715 242 619 242 c 0
 523 242 458 321 458 422 c 0
 458 559 510 690 544 800 c 1
 465 694 338 490 175 490 c 0
 85 490 18 565 18 648 c 0
EndSplineSet
EndChar

StartChar: plus
Encoding: 11 43 12
Width: 816
Flags: HW
LayerCount: 2
Fore
SplineSet
12 762 m 1
 284 762 l 1
 284 1051 l 1
 539 1051 l 1
 539 762 l 1
 804 762 l 1
 804 517 l 1
 539 517 l 1
 539 238 l 1
 284 238 l 1
 284 517 l 1
 12 517 l 1
 12 762 l 1
EndSplineSet
EndChar

StartChar: comma
Encoding: 12 44 13
Width: 596
Flags: HW
LayerCount: 2
Fore
SplineSet
37 -223 m 1
 36 -224 l 1
 37 -224 l 1
 37 -223 l 1
37 -224 m 1
 195 -224 227 -161 227 -1 c 1
 38 -1 l 1
 38 365 l 1
 548 365 l 1
 564 262 572 170 572 88 c 0
 572 -281 405 -448 37 -448 c 1
 37 -224 l 1
EndSplineSet
EndChar

StartChar: hyphen
Encoding: 13 45 14
Width: 759
Flags: HW
LayerCount: 2
Fore
SplineSet
723 836 m 1
 723 537 l 1
 36 537 l 1
 36 836 l 1
 723 836 l 1
EndSplineSet
EndChar

StartChar: period
Encoding: 14 46 15
Width: 617
Flags: W
HStem: -28 496<141.562 303 305 470.582>
VStem: 26 565<80.4675 363.322>
LayerCount: 2
Fore
SplineSet
591 223 m 0
 591 66 463 -27 305 -27 c 1
 303 -28 l 1
 148 -28 26 68 26 223 c 0
 26 377 147 468 304 468 c 0
 465 468 591 380 591 223 c 0
EndSplineSet
EndChar

StartChar: slash
Encoding: 15 47 16
Width: 893
Flags: W
HStem: 0 21G<19 378.186> 1603 20G<503.949 874>
VStem: 19 353<0 353> 510 364<1259 1623>
DStem2: 19 0 372 0 0.295492 0.955345<104.309 1695.61>
LayerCount: 2
Fore
SplineSet
19 0 m 1
 510 1623 l 1
 874 1623 l 1
 372 0 l 1
 19 0 l 1
EndSplineSet
EndChar

StartChar: zero
Encoding: 16 48 17
Width: 1298
Flags: W
HStem: -26 21G<440.5 862.5> 1104 371<560.845 726.239>
VStem: 30 486<421.23 1052.49> 779 489<423.698 1052.63>
LayerCount: 2
Fore
SplineSet
652 -26 m 0
 229 -26 30 297.271 30 763 c 0
 30 1178.33 263 1475 650 1475 c 0
 1037 1475 1268 1177.25 1268 764 c 0
 1268 300.519 1073 -26 652 -26 c 0
647 348 m 1
 648 343 l 1
 800.604 343 779 600.594 779 768 c 3
 779 915.708 776.718 1104 646 1104 c 0
 514.759 1104 516 914.884 516 764 c 3
 516 598.439 497.396 348 647 348 c 1
EndSplineSet
EndChar

StartChar: one
Encoding: 17 49 18
Width: 823
Flags: W
HStem: 0 324<52 191 691 791> 1355 20G<609.719 689.038>
VStem: 191 500<324 951>
LayerCount: 2
Fore
SplineSet
52 0 m 1
 51 325 l 1
 191 324 l 1
 191 951 l 1
 27 950 l 1
 27 1208 l 1
 689 1375 l 1
 691 324 l 1
 791 324 l 1
 791 0 l 1
 52 0 l 1
EndSplineSet
EndChar

StartChar: two
Encoding: 18 50 19
Width: 1247
Flags: W
HStem: 0 317<74 186.846 663 996.069> 1127 348.598<376.078 707.03>
VStem: 24 323<880.73 1092.18> 619 510<800.98 1076.32> 1039 173<360.326 465>
LayerCount: 2
Fore
SplineSet
824 317 m 5xf0
 942 321 1039 343 1039 465 c 5
 1212 465 l 5xe8
 1217 0 l 5
 74 0 l 5
 74 303 l 5
 305 406.567 619 601.931 619 955 c 4
 619 1040 563 1127 481 1127 c 4
 397 1127 347 1072.15 347 995 c 4
 347 931.092 397.258 863.496 429 834 c 5
 203 660 l 5
 94.8792 740.959 24 868.033 24 1032 c 4
 24 1330.25 290.595 1475.6 563.148 1475.6 c 4
 842.877 1475.6 1129 1320.59 1129 1019 c 4
 1129 679.623 844 472.742 663 317 c 5
 824 317 l 5xf0
EndSplineSet
EndChar

StartChar: three
Encoding: 19 51 20
Width: 1201
Flags: W
HStem: -19 324<208.61 588.141> 78 346<47 393> 1146 311<230 586>
VStem: 35 195<1004 1146> 639 531<355.397 616.267>
LayerCount: 2
Fore
SplineSet
522 -19 m 0xb8
 211 -19 47 78 47 78 c 25
 47 424 l 1x78
 184.351 344.938 323.973 305 467 305 c 0
 551.45 305 639 351.53 639 485 c 0
 639 626.09 542.494 672 442 672 c 0
 396.008 672 265 652 265 652 c 9
 244 652 l 25
 244 820 l 1
 586 1136 l 5
 586 1146 l 5
 230 1146 l 29
 230 1003 l 29
 35 1004 l 5
 35 1457 l 5
 1104 1457 l 5
 1104 1193 l 21
 790 911 l 1
 1050 911 1170 716.211 1170 513 c 0
 1170 142.441 882 -19 522 -19 c 0xb8
EndSplineSet
EndChar

StartChar: four
Encoding: 20 52 21
AltUni2: 002074.ffffffff.0
Width: 1268
Flags: W
HStem: 0 288<428 555 1011 1133> 420 257<366 555 1012 1239>
VStem: 555 457<288 420 677 911>
LayerCount: 2
Fore
SplineSet
1011 288 m 1
 1133 288 l 1
 1133 0 l 1
 428 0 l 1
 428 288 l 1
 555 288 l 1
 555 420 l 1
 22 419 l 1
 22 688 l 1
 573 1342 l 1
 1012 1341 l 1
 1012 675 l 1
 1239 677 l 1
 1239 420 l 1
 1011 420 l 1
 1011 288 l 1
555 677 m 1
 555 911 l 1
 366 678 l 1
 555 677 l 1
EndSplineSet
EndChar

StartChar: five
Encoding: 21 53 22
Width: 1057
Flags: W
HStem: -20 300<124.192 588.772> 617 741<77.5679 337.296> 1061 297<341 952>
VStem: 478 549<341.614 547.57>
LayerCount: 2
Fore
SplineSet
1027 511 m 0xb0
 1027 148 764 -20 402 -20 c 0
 278 -20 99 13 37 73 c 1
 38 75 l 1
 38 347 l 1
 74 330 l 2
 112 313 199 280 250 280 c 0
 361 280 478 330 478 445 c 0
 478 566 346 617 225 617 c 0xd0
 164 617 105 596 48 553 c 1
 36 564 l 1
 36 1358 l 1
 952 1358 l 1
 952 1061 l 1
 341 1061 l 1
 341 922 l 1
 366 926 l 2
 410 934 494 939 552 939 c 0
 807 939 1027 763 1027 511 c 0xb0
EndSplineSet
EndChar

StartChar: six
Encoding: 22 54 23
Width: 1303
Flags: W
HStem: -19 328<574.403 720.254>
VStem: 28 512<338.05 719.309> 760 502.012<342.27 708.118>
LayerCount: 2
Back
SplineSet
1262 542 m 4
 1262 254 1011 -19 655 -19 c 4
 305 -19 28 186 28 534 c 4
 28 972.103 399.883 1236.1 617 1458 c 5
 622 1457 l 5
 1158 1457 l 5
 1158 1457 834.473 1083.95 802 993 c 5
 1114 978 1262 767 1262 542 c 4
658 746 m 4
 549 746 540 645 540 531 c 4
 540 438 551 309 644 309 c 4
 757 309 760 472 760 526 c 4
 760 606 738 746 658 746 c 4
EndSplineSet
Fore
SplineSet
1262.01 485.929 m 4
 1262.01 226.271 1009.6 -19 655 -19 c 4
 305 -19 28 186 28 534 c 4
 28 990 453.027 1286.79 622 1457 c 5
 1158 1457 l 5
 1158 1457 839.946 1123.95 742 993 c 5
 1116.91 993 1261.04 739.574 1262.01 485.929 c 4
658 746 m 4
 549 746 540 645 540 531 c 4
 540 438 551 309 644 309 c 4
 757 309 760 472 760 526 c 4
 760 606 738 746 658 746 c 4
EndSplineSet
EndChar

StartChar: seven
Encoding: 23 55 24
Width: 1199
Flags: W
HStem: 0 21G<117 658.859> 1020 317<269.405 622>
VStem: 32 218<878 1001.16>
DStem2: 117 0 649 0 0.442163 0.896935<235.231 1138.17>
LayerCount: 2
Fore
SplineSet
381 1020 m 2
 281 1020 250 983 250 877 c 1
 32 878 l 1
 32 1337 l 1
 1175 1337 l 1
 1175 1067 l 1
 649 0 l 1
 117 0 l 1
 622 1020 l 1
 381 1020 l 2
EndSplineSet
EndChar

StartChar: eight
Encoding: 24 56 25
Width: 1261
Flags: W
HStem: -18 256<572.098 689.885> 576 248<570.375 690.5> 1121 256<566.613 697.29>
VStem: 30 520<253.617 556.031> 108 442<842.324 1107.71> 710 521<254.563 557.889> 714 439<844.153 1108.3>
LayerCount: 2
Fore
SplineSet
632 -18 m 0xe4
 329 -18 30 70 30 373 c 0xf4
 30 543 117 661 291 728 c 1
 184 769 108 866 108 1008 c 0
 108 1283 363 1377 632 1377 c 0
 898 1377 1153 1284 1153 1010 c 0xea
 1153 868 1077 771 970 730 c 1
 1144 663 1231 545 1231 375 c 0
 1231 72 935 -18 632 -18 c 0xe4
550 404 m 0
 550 293 577 238 630 238 c 0
 683 238 710 293 710 404 c 0
 710 519 684 576 632 576 c 0
 577 576 550 519 550 404 c 0
714 984 m 0xea
 714 1055 702 1121 634 1121 c 0
 562 1121 550 1059 550 984 c 0
 550 876 581 824 636 824 c 0
 688 824 714 876 714 984 c 0xea
EndSplineSet
EndChar

StartChar: nine
Encoding: 25 57 26
Width: 1308
Flags: W
HStem: -2 21G<209 758.562> 1149 327<586.235 721.861>
VStem: 28 522<737.483 1115.75> 757 523<737.023 1123.87>
LayerCount: 2
Back
SplineSet
1262 971 m 4
 1262 1231 1010 1476 655 1476 c 4
 305 1476 28 1271 28 923 c 4
 28 467 453 170 622 0 c 5
 1158 0 l 5
 1158 0 840 333 742 464 c 5
 1117 464 1261 717 1262 971 c 4
658 711 m 4
 549 711 540 812 540 926 c 4
 540 1019 551 1148 644 1148 c 4
 757 1148 760 985 760 931 c 4
 760 851 738 711 658 711 c 4
EndSplineSet
Fore
SplineSet
1280 920 m 0
 1280 503.796 747 -2 747 -2 c 1
 209 0 l 1
 297 111.967 455 338.504 533 470 c 1
 265 470 28 655 28 920 c 0
 28 1270 311 1476 670 1476 c 0
 1013 1476 1280 1260 1280 920 c 0
757 927 m 0
 757 1011 744 1149 661 1149 c 0
 587 1149 550 1072 550 919 c 0
 550 780 586 710 659 710 c 0
 724 710 757 782 757 927 c 0
EndSplineSet
EndChar

StartChar: colon
Encoding: 26 58 27
Width: 629
Flags: HW
LayerCount: 2
Fore
SplineSet
598 846 m 0
 598 689 470 596 312 596 c 1
 310 595 l 1
 155 595 33 691 33 846 c 0
 33 1000 154 1091 311 1091 c 0
 472 1091 598 1003 598 846 c 0
596 231 m 0
 596 74 468 -19 310 -19 c 1
 308 -20 l 1
 153 -20 31 76 31 231 c 0
 31 385 152 476 309 476 c 0
 470 476 596 388 596 231 c 0
EndSplineSet
EndChar

StartChar: semicolon
Encoding: 27 59 28
Width: 739
Flags: W
HStem: -450 227<95 238.42> 592 496<198.562 360 362 527.582>
VStem: 83 565<700.468 983.322> 285 345<-178.623 -3>
LayerCount: 2
Fore
SplineSet
285 -3 m 1xd0
 285 -161 252 -223 94 -223 c 1
 94 -448 l 1
 95 -450 l 1
 463 -450 630 -284 630 86 c 0
 630 168 606 363 606 363 c 1
 96 363 l 1
 96 -3 l 1
 285 -3 l 1xd0
648 843 m 0xe0
 648 686 520 593 362 593 c 1
 360 592 l 1
 205 592 83 688 83 843 c 0
 83 997 204 1088 361 1088 c 0
 522 1088 648 1000 648 843 c 0xe0
EndSplineSet
EndChar

StartChar: less
Encoding: 28 60 29
AltUni2: 002039.ffffffff.0
Width: 766
Flags: HW
LayerCount: 2
Fore
SplineSet
15 946 m 1
 730 1542 l 1
 730 1077 l 1
 397 761 l 1
 730 445 l 1
 730 -20 l 1
 15 576 l 1
 15 946 l 1
EndSplineSet
EndChar

StartChar: equal
Encoding: 29 61 30
Width: 719
Flags: W
HStem: 169 223<36 683> 538 223<36 683>
VStem: 36 647<169 392 538 761>
LayerCount: 2
Fore
SplineSet
683 392 m 1
 683 169 l 1
 36 169 l 1
 36 392 l 1
 683 392 l 1
683 761 m 1
 683 538 l 1
 36 538 l 1
 36 761 l 1
 683 761 l 1
EndSplineSet
EndChar

StartChar: greater
Encoding: 30 62 31
AltUni2: 00203a.ffffffff.0
Width: 766
Flags: HW
LayerCount: 2
Fore
SplineSet
751 576 m 1
 36 -20 l 1
 36 445 l 1
 369 761 l 1
 36 1077 l 1
 36 1542 l 1
 751 946 l 1
 751 576 l 1
EndSplineSet
EndChar

StartChar: question
Encoding: 31 63 32
Width: 1259
Flags: HW
LayerCount: 2
Fore
SplineSet
1236 1273 m 0
 1236 936 928 813 674 726 c 1
 674 539 l 1
 327 539 l 1
 328 891 l 1
 328 893 l 1
 592 1012 724 1131 724 1250 c 0
 724 1318 698 1381 628 1381 c 0
 548 1381 505 1327 498 1219 c 1
 26 1219 l 1
 44 1527 304 1737 635 1737 c 0
 947 1737 1236 1577 1236 1273 c 0
793 225 m 0
 793 68 665 -25 507 -25 c 1
 505 -26 l 1
 350 -26 228 70 228 225 c 0
 228 379 349 470 506 470 c 0
 667 470 793 382 793 225 c 0
EndSplineSet
EndChar

StartChar: at
Encoding: 32 64 33
Width: 1817
Flags: HW
LayerCount: 2
Fore
SplineSet
950 964 m 0
 1195 964 1342 852 1342 603 c 1
 1343 398 l 1
 1348 395 l 1
 1485 395 1506 531 1506 675 c 0
 1506 978 1263 1115 935 1115 c 0
 574 1115 345 916 345 565 c 0
 345 209 621 34 985 34 c 0
 1043 34 1097 41 1148 56 c 1
 1200 -172 l 1
 1127 -191 1055 -201 985 -201 c 0
 460 -201 30 52 30 563 c 0
 30 1075 413 1368 934 1368 c 0
 1405 1368 1790 1133 1790 674 c 0
 1790 339 1557 202 1213 202 c 2
 1063 202 l 1
 1025 292 l 1
 986 236 901 189 813 189 c 0
 629 189 527 387 527 587 c 0
 527 838 692 964 950 964 c 0
952 813 m 0
 870 813 872 665 872 579 c 1
 871 577 l 1
 871 498 883 370 944 370 c 0
 981 370 1028 375 1028 405 c 2
 1028 667 l 2
 1028 752 1022 813 952 813 c 0
EndSplineSet
EndChar

StartChar: A
Encoding: 33 65 34
Width: 1690
Flags: W
HStem: 0 359<32 189 567 710 835 956 1535 1662> 523 240<640 869> 1240 353<219 431>
DStem2: 1213 1593 752 1251 0.252677 -0.967551<214.418 716.146>
LayerCount: 2
Fore
SplineSet
917 523 m 1
 594 523 l 1
 567 359 l 1
 710 359 l 1
 710 0 l 1
 32 0 l 1
 32 359 l 1
 189 359 l 1
 431 1240 l 1
 219 1240 l 1
 219 1593 l 1
 1213 1593 l 1
 1535 360 l 1
 1662 360 l 1
 1662 0 l 1
 835 0 l 1
 835 359 l 1
 955 359 l 2
 956 359 956 360 956 362 c 0
 956 385 917 523 917 523 c 1
752 1251 m 1
 640 763 l 1
 869 763 l 1
 752 1251 l 1
EndSplineSet
Substitution2: "'c2sc' Capitals to Small Capitals in Latin lookup 0 subtable" a.sc
EndChar

StartChar: B
Encoding: 34 66 35
Width: 1595
Flags: W
HStem: 0 359<36 209 736 963.967> 690 261<736 960.061> 1240 353<43 209 736 955.209>
VStem: 209 527<359 689 951 1240> 1000 494<1006.26 1206.43> 1008 555<404.588 627.497>
LayerCount: 2
Fore
SplineSet
1494 1174 m 0xf8
 1494 1007 1382 888 1249 840 c 1
 1438 785 1563 651 1563 420 c 0xf4
 1563 101 1299 0 978 0 c 2
 36 0 l 1
 36 359 l 1
 209 359 l 1
 209 1240 l 1
 43 1240 l 1
 43 1593 l 1
 857 1593 l 2
 1214 1593 1494 1529 1494 1174 c 0xf8
1008 527 m 0
 1008 645 934 690 810 690 c 0
 803 690 778 690 736 689 c 1
 736 359 l 1
 758 359 l 2
 891 359 1008 368 1008 527 c 0
1000 1101 m 0xf8
 1000 1185 942 1240 862 1240 c 2
 736 1240 l 1
 736 951 l 1
 777 951 l 2
 915 951 1000 977 1000 1101 c 0xf8
EndSplineSet
Substitution2: "'c2sc' Capitals to Small Capitals in Latin lookup 0 subtable" b.sc
EndChar

StartChar: C
Encoding: 35 67 36
Width: 1454
Flags: W
HStem: -27 420<600.32 1123.25> 1260 363<480 979.295> 1574 20G<1121.27 1420>
VStem: 30 602<607.346 1071.26> 1122 298<962 1154.16>
LayerCount: 2
Fore
SplineSet
963 393 m 0xd8
 1149 393 1316 488 1390 563 c 1
 1390 133 l 1
 1206 26 1008 -27 823 -27 c 0
 395 -27 30 255 30 805 c 0
 30 1254 246 1623 714 1623 c 0xd8
 876 1623 1008 1595 1094 1493 c 1
 1128 1594 l 1
 1420 1594 l 1xb8
 1420 962 l 1
 1122 962 l 1
 1122 971 l 2
 1122 1129 1047 1260 887 1260 c 0
 728 1260 632 1053 632 846 c 0
 632 620 731 393 963 393 c 0xd8
EndSplineSet
Substitution2: "'c2sc' Capitals to Small Capitals in Latin lookup 0 subtable" c.sc
EndChar

StartChar: D
Encoding: 36 68 37
Width: 1717
Flags: W
HStem: 0 359<42 205 752 940.985> 1241 352<36 205 752 940.362>
VStem: 205 547<359 1241> 1094 594<535.136 1070.59>
LayerCount: 2
Fore
SplineSet
1688 796 m 0
 1688 350 1375 0 844 0 c 2
 42 0 l 1
 42 359 l 1
 205 359 l 1
 205 1241 l 1
 36 1241 l 1
 36 1593 l 1
 866 1593 l 2
 1407 1593 1688 1325 1688 796 c 0
1094 797 m 0
 1094 1032 1040 1241 799 1241 c 2
 752 1241 l 1
 752 359 l 1
 787 359 l 2
 1026 359 1094 568 1094 797 c 0
EndSplineSet
Substitution2: "'c2sc' Capitals to Small Capitals in Latin lookup 0 subtable" d.sc
EndChar

StartChar: E
Encoding: 37 69 38
Width: 1359
Flags: W
HStem: 0 359<36 194 747 965> 716 262<747 952> 1240 353<36 194 747 960>
VStem: 194 553<359 716 978 1240>
LayerCount: 2
Fore
SplineSet
1036 959 m 1
 960 1240 l 1
 747 1240 l 1
 747 978 l 1
 952 978 l 1
 952 716 l 1
 747 716 l 1
 747 359 l 1
 965 359 l 1
 1042 677 l 1
 1315 677 l 1
 1315 0 l 1
 36 0 l 1
 36 359 l 1
 194 359 l 1
 194 1240 l 1
 36 1240 l 1
 36 1593 l 1
 1304 1593 l 1
 1304 959 l 1
 1036 959 l 1
EndSplineSet
Substitution2: "'c2sc' Capitals to Small Capitals in Latin lookup 0 subtable" e.sc
EndChar

StartChar: F
Encoding: 38 70 39
Width: 1338
Flags: W
HStem: 0 359<36 194 759 913> 683 256<759 961> 1240 353<36 194 759 963>
VStem: 194 565<359 683 939 1240>
LayerCount: 2
Fore
SplineSet
961 683 m 1
 759 683 l 1
 759 359 l 1
 913 359 l 1
 913 0 l 1
 36 0 l 1
 36 359 l 1
 194 359 l 1
 194 1240 l 1
 36 1240 l 1
 36 1593 l 1
 1311 1593 l 1
 1311 949 l 1
 1027 949 l 1
 963 1240 l 1
 759 1240 l 1
 759 939 l 1
 961 939 l 1
 961 683 l 1
EndSplineSet
Substitution2: "'c2sc' Capitals to Small Capitals in Latin lookup 0 subtable" f.sc
EndChar

StartChar: G
Encoding: 39 71 40
Width: 1656
Flags: W
HStem: -29 407<806.769 1139.08> 558 304<973 1141> 1260 362<802.242 1030.79> 1573 20G<1172.7 1524>
VStem: 30 599<586.463 1052.9> 1141 457<401.417 558>
LayerCount: 2
Fore
SplineSet
629 801 m 0xec
 629 590 738 378 951 378 c 0
 1050 378 1141 416 1141 416 c 1
 1141 558 l 1
 973 558 l 1
 973 862 l 1
 1598 862 l 1
 1598 140 l 1
 1393 30 1150 -29 918 -29 c 0
 454 -29 30 211 30 792 c 0
 30 1233 293 1622 832 1622 c 0xec
 961 1622 1066 1581 1145 1485 c 1
 1179 1593 l 1
 1524 1593 l 1xdc
 1524 993 l 1
 1216 993 l 1
 1173 1177 1065 1260 953 1260 c 0
 756 1260 629 1089 629 801 c 0xec
EndSplineSet
Substitution2: "'c2sc' Capitals to Small Capitals in Latin lookup 0 subtable" g.sc
EndChar

StartChar: H
Encoding: 40 72 41
Width: 1771
Flags: W
HStem: 0 359<36 183 750 846 935 1019 1588 1735> 635 341<750 1019> 1240 353<36 183 750 845 931 1019 1588 1729>
VStem: 36 810<0 359 1240 1593> 183 567<359 635 976 1240> 935 800<0 359 1240 1593> 1019 569<359 635 976 1240>
LayerCount: 2
Fore
SplineSet
36 359 m 1xf0
 183 359 l 1
 183 1240 l 1xe8
 36 1240 l 1
 36 1593 l 1xf0
 845 1593 l 1
 845 1240 l 1
 750 1240 l 1
 750 976 l 1
 1019 976 l 1
 1019 1240 l 1
 931 1240 l 1
 931 1593 l 1
 1729 1593 l 1
 1729 1240 l 1
 1588 1240 l 1
 1588 359 l 1xea
 1735 359 l 1
 1735 0 l 1
 935 0 l 1
 935 359 l 1xe4
 1019 359 l 1
 1019 635 l 1
 750 635 l 1
 750 359 l 1xea
 846 359 l 1
 846 0 l 1
 36 0 l 1
 36 359 l 1xf0
EndSplineSet
Substitution2: "'c2sc' Capitals to Small Capitals in Latin lookup 0 subtable" h.sc
EndChar

StartChar: I
Encoding: 41 73 42
Width: 940
Flags: W
HStem: 0 359<36 183 757 898> 1240 353<40 183 757 904>
VStem: 36 862<0 359 1240 1593>
LayerCount: 2
Fore
SplineSet
904 1240 m 1
 757 1240 l 1
 757 359 l 1
 898 359 l 1
 898 0 l 1
 36 0 l 1
 36 359 l 1
 183 359 l 1
 183 1240 l 1
 40 1240 l 1
 40 1593 l 1
 904 1593 l 1
 904 1240 l 1
EndSplineSet
Substitution2: "'c2sc' Capitals to Small Capitals in Latin lookup 0 subtable" i.sc
EndChar

StartChar: J
Encoding: 42 74 43
Width: 1294
Flags: W
HStem: -30 395<413.391 776.5> -13 21G<27 305.043> 1240 353<381 565 1118 1265>
VStem: 27 304<399.713 633> 565 553<391.373 1240>
LayerCount: 2
Fore
SplineSet
454 365 m 0xb8
 549 365 565 458 565 572 c 2
 565 1240 l 1
 381 1240 l 5
 381 1593 l 5
 1265 1593 l 1
 1265 1240 l 1
 1118 1240 l 1
 1118 475 l 2
 1118 167 931 -30 622 -30 c 0xb8
 489 -30 393 6 334 79 c 1
 297 -13 l 1
 27 -13 l 1x78
 27 633 l 1
 331 633 l 1
 331 514 336 365 454 365 c 0xb8
EndSplineSet
Substitution2: "'c2sc' Capitals to Small Capitals in Latin lookup 0 subtable" j.sc
EndChar

StartChar: K
Encoding: 43 75 44
Width: 1729
Flags: HW
LayerCount: 2
Fore
SplineSet
1010 307 m 2
 1010 482 l 2
 1010 543 962 630 900 630 c 2
 730 630 l 1
 730 359 l 1
 857 359 l 1
 864 0 l 1
 36 0 l 1
 36 359 l 1
 183 359 l 1
 183 1240 l 1
 36 1240 l 1
 36 1592 l 1
 857 1592 l 1
 857 1240 l 1
 730 1240 l 1
 730 877 l 1
 1017 1240 l 1
 1017 1592 l 1
 1641 1592 l 1
 1641 1240 l 1
 1504 1240 l 1
 1185 854 l 1
 1185 840 l 1
 1381 840 1531 788 1531 592 c 2
 1531 451 l 2
 1531 412 1555 359 1598 359 c 2
 1688 359 l 1
 1694 0 l 1
 1346 0 l 2
 1122 0 1010 102 1010 307 c 2
EndSplineSet
Substitution2: "'c2sc' Capitals to Small Capitals in Latin lookup 0 subtable" k.sc
EndChar

StartChar: L
Encoding: 44 76 45
Width: 1341
Flags: W
HStem: 0 359<41 183 750 941> 1240 352<36 183 750 904>
VStem: 183 567<359 1240>
LayerCount: 2
Fore
SplineSet
750 359 m 1
 941 359 l 1
 1028 709 l 1
 1314 709 l 1
 1314 0 l 1
 41 0 l 1
 41 359 l 1
 183 359 l 1
 183 1240 l 1
 36 1240 l 1
 36 1592 l 1
 904 1592 l 1
 904 1240 l 1
 750 1240 l 1
 750 359 l 1
EndSplineSet
Substitution2: "'c2sc' Capitals to Small Capitals in Latin lookup 0 subtable" l.sc
EndChar

StartChar: M
Encoding: 45 77 46
Width: 2284
Flags: W
HStem: 0 359<40 204 529 691 1445 1568 2094 2248> 1240 353<36 204 2094 2241>
VStem: 204 325<360 969> 1568 526<359 947>
LayerCount: 2
Fore
SplineSet
691 359 m 1
 691 0 l 1
 40 0 l 1
 40 359 l 1
 153 359 204 360 204 360 c 1
 204 1240 l 1
 36 1240 l 1
 36 1593 l 1
 871 1593 l 1
 1181 826 l 1
 1457 1593 l 1
 2241 1593 l 1
 2241 1240 l 1
 2094 1240 l 1
 2094 359 l 1
 2248 359 l 1
 2248 0 l 1
 1445 0 l 1
 1445 359 l 1
 1568 359 l 1
 1568 947 l 1
 1226 0 l 1
 945 0 l 1
 529 969 l 1
 529 360 l 1
 529 360 595 359 691 359 c 1
EndSplineSet
Substitution2: "'c2sc' Capitals to Small Capitals in Latin lookup 0 subtable" m.sc
EndChar

StartChar: N
Encoding: 46 78 47
Width: 1785
Flags: W
HStem: 0 359<36 199 515 673> 1240 352<42 199 1115 1273 1594 1752>
VStem: 199 316<360 878> 1273 321<647 1240>
LayerCount: 2
Fore
SplineSet
1752 1240 m 1
 1594 1240 l 1
 1594 0 l 1
 988 0 l 1
 515 878 l 1
 515 360 l 1
 515 360 561 360 673 359 c 1
 673 0 l 1
 36 0 l 1
 36 359 l 1
 138 359 199 360 199 360 c 1
 199 1242 l 1
 42 1242 l 1
 42 1593 l 1
 777 1593 l 1
 1273 647 l 1
 1273 1240 l 1
 1115 1240 l 1
 1115 1592 l 1
 1752 1592 l 1
 1752 1240 l 1
EndSplineSet
Substitution2: "'c2sc' Capitals to Small Capitals in Latin lookup 0 subtable" n.sc
EndChar

StartChar: O
Encoding: 47 79 48
Width: 1700
Flags: W
HStem: -29 347<756.934 943.066> 1260 363<751.103 948.897>
VStem: 30 600<521.023 1096.66> 1070 600<521.023 1096.66>
LayerCount: 2
Fore
SplineSet
850 318 m 0
 1000 318 1070 564 1070 806 c 0
 1070 1037 1006 1260 850 1260 c 0
 694 1260 630 1037 630 806 c 0
 630 564 700 318 850 318 c 0
850 -29 m 0
 369 -29 30 323 30 798 c 0
 30 1295 345 1623 850 1623 c 0
 1355 1623 1670 1295 1670 798 c 0
 1670 323 1331 -29 850 -29 c 0
EndSplineSet
Substitution2: "'c2sc' Capitals to Small Capitals in Latin lookup 0 subtable" o.sc
EndChar

StartChar: P
Encoding: 48 80 49
Width: 1588
Flags: W
HStem: 0 359<36 192 751 897> 559 326<752 940.292> 1240 353<41 192 752 967.784>
VStem: 192 560<359 569 885 1240> 1020 543<952.056 1190.36>
LayerCount: 2
Fore
SplineSet
901 559 m 0
 854 559 804 562 751 569 c 1
 751 359 l 1
 897 359 l 1
 897 0 l 1
 36 0 l 1
 36 359 l 1
 192 359 l 1
 192 1240 l 1
 41 1240 l 1
 41 1593 l 1
 892 1593 l 2
 1214 1593 1563 1519 1563 1133 c 0
 1563 714 1326 559 901 559 c 0
836 1240 m 2
 752 1240 l 1
 752 885 l 1
 793 885 l 2
 944 885 1020 952 1020 1086 c 0
 1020 1186 946 1240 836 1240 c 2
EndSplineSet
Substitution2: "'c2sc' Capitals to Small Capitals in Latin lookup 0 subtable" p.sc
EndChar

StartChar: Q
Encoding: 49 81 50
Width: 1744
Flags: W
HStem: -29 347<752.934 943.954> 1260 363<747.103 944.897>
VStem: 26 600<521.023 1096.66> 1066 600<516.174 1096.66>
LayerCount: 2
Fore
SplineSet
846 -29 m 0
 365 -29 26 323 26 798 c 0
 26 1295 341 1623 846 1623 c 0
 1351 1623 1666 1295 1666 798 c 0
 1666 633 1625 484 1552 359 c 1
 1555 360 l 1
 1718 360 l 1
 1718 1 l 1
 1080 1 l 1
 1007 -18 928 -29 846 -29 c 0
846 318 m 0
 996 318 1066 564 1066 806 c 0
 1066 1037 1002 1260 846 1260 c 0
 690 1260 626 1037 626 806 c 0
 626 564 696 318 846 318 c 0
EndSplineSet
Substitution2: "'c2sc' Capitals to Small Capitals in Latin lookup 0 subtable" q.sc
EndChar

StartChar: R
Encoding: 50 82 51
Width: 1694
Flags: W
HStem: 0 359<37 191 726 847 1512.22 1662> 683 226<726 956.625> 1239 353<36 191 720 981.462>
VStem: 191 529<359 683 909 1239> 1031 549<985.067 1189.91>
LayerCount: 2
Fore
SplineSet
1580 1160 m 0
 1580 941 1420 834 1221 797 c 1
 1374 762 1498 706 1498 548 c 2
 1498 465 l 2
 1498 367 1560 358 1662 358 c 1
 1662 -1 l 1
 1338 -1 l 2
 1141 -1 1010 53 1010 255 c 2
 1010 440 l 2
 1010 592 977 683 824 683 c 2
 726 683 l 1
 726 359 l 1
 847 359 l 1
 847 0 l 1
 671 0 401 1 37 0 c 1
 37 359 l 1
 191 359 l 1
 191 1239 l 1
 36 1239 l 1
 36 1592 l 1
 1051 1592 l 2
 1378 1592 1580 1473 1580 1160 c 0
1031 1085 m 0
 1031 1183 954 1239 841 1239 c 2
 720 1239 l 1
 720 909 l 1
 781 909 l 2
 916 909 1031 949 1031 1085 c 0
EndSplineSet
Substitution2: "'c2sc' Capitals to Small Capitals in Latin lookup 0 subtable" r.sc
EndChar

StartChar: S
Encoding: 51 83 52
Width: 1358
Flags: W
HStem: -29 333<571.825 956.125> 0 488<90 413> 1117 476<926 1211> 1305 318.12<399.497 779.512>
VStem: 52.5127 468.487<936.88 1278.76> 90 323<0 101.687 394.332 488> 805 509<336.3 696.278>
LayerCount: 2
Fore
SplineSet
52.5127 1133.97 m 4x8a
 52.5127 1424.1 261.857 1623.12 547.054 1623.12 c 4x9a
 765.362 1623.12 842.764 1548.59 893 1483 c 5
 926 1593 l 5
 1211 1593 l 5
 1211 1117 l 5
 904 1117 l 5x2a
 850.438 1260.97 790.925 1305 677 1305 c 4
 577.483 1305 521 1272 521 1213 c 4
 521 1142 631 1115 731 1092 c 4
 1046.79 1017.08 1314 892.556 1314 500 c 4
 1314 202.562 1112.25 -29 800 -29 c 4x9a
 617.142 -29 536.812 20.9174 429 122 c 5
 413 0 l 5
 90 0 l 5
 90 488 l 5
 412 488 l 5x46
 455 344.623 548 304 666 304 c 4
 738 304 805 344.465 805 420 c 4
 805 494 718 518 645 538 c 4
 329.61 628.259 52.5127 739.791 52.5127 1133.97 c 4x8a
EndSplineSet
Substitution2: "'c2sc' Capitals to Small Capitals in Latin lookup 0 subtable" s.sc
EndChar

StartChar: T
Encoding: 52 84 53
Width: 1557
Flags: W
HStem: 0 360<331 495 1058 1222> 965 627<30 311 1246 1527> 1240 352<355 495 1058 1204>
VStem: 495 563<360 1240>
LayerCount: 2
Fore
SplineSet
1246 965 m 1xd0
 1204 1240 l 1
 1058 1240 l 1
 1058 360 l 1
 1222 360 l 1
 1222 0 l 1
 331 0 l 1
 331 360 l 1
 495 360 l 1
 495 1240 l 1
 355 1240 l 1xb0
 311 965 l 1
 30 965 l 1
 30 1592 l 1
 1527 1592 l 1
 1527 965 l 1
 1246 965 l 1xd0
EndSplineSet
Substitution2: "'c2sc' Capitals to Small Capitals in Latin lookup 0 subtable" t.sc
EndChar

StartChar: U
Encoding: 53 85 54
Width: 1655
Flags: HW
LayerCount: 2
Fore
SplineSet
190 704 m 2
 190 1240 l 1
 29 1240 l 1
 29 1592 l 1
 898 1592 l 1
 898 1240 l 1
 750 1240 l 1
 750 600 l 2
 750 462 800 346 939 346 c 0
 1059 346 1135 417 1135 536 c 2
 1135 1240 l 1
 971 1240 l 1
 971 1592 l 1
 1625 1592 l 1
 1625 1240 l 1
 1471 1240 l 1
 1471 520 l 2
 1471 181 1163 -29 820 -29 c 0
 359 -29 190 245 190 704 c 2
EndSplineSet
Substitution2: "'c2sc' Capitals to Small Capitals in Latin lookup 0 subtable" u.sc
EndChar

StartChar: V
Encoding: 54 86 55
Width: 1690
Flags: HW
LayerCount: 2
Fore
SplineSet
865 1240 m 1
 749 1240 l 1
 951 517 l 1
 1126 1239 l 1
 996 1239 l 1
 996 1592 l 1
 1690 1592 l 1
 1690 1240 l 1
 1510 1240 l 1
 1111 0 l 1
 527 0 l 1
 166 1240 l 1
 0 1240 l 1
 0 1592 l 1
 865 1592 l 1
 865 1240 l 1
EndSplineSet
Substitution2: "'c2sc' Capitals to Small Capitals in Latin lookup 0 subtable" v.sc
EndChar

StartChar: W
Encoding: 55 87 56
Width: 2497
Flags: W
HStem: 0 21G<506.371 1054.72 1438.53 1992.5> 1240 353<0 163 740 891 1836 1976 2328 2497>
DStem2: 1821 703 2328 1240 0.265156 0.964205<0 558.878>
LayerCount: 2
Fore
SplineSet
0 1240 m 1
 0 1593 l 1
 891 1593 l 1
 891 1240 l 1
 740 1240 l 1
 899 672 l 1
 1159 1593 l 1
 1568 1593 l 1
 1821 703 l 1
 1976 1240 l 1
 1836 1240 l 1
 1836 1593 l 1
 2497 1593 l 1
 2497 1240 l 1
 2328 1240 l 1
 1987 0 l 1
 1444 0 l 1
 1251 706 l 1
 1049 0 l 1
 512 0 l 1
 163 1240 l 1
 0 1240 l 1
EndSplineSet
Substitution2: "'c2sc' Capitals to Small Capitals in Latin lookup 0 subtable" w.sc
EndChar

StartChar: X
Encoding: 56 88 57
Width: 1921
Flags: HW
LayerCount: 2
Fore
SplineSet
857 359 m 1
 857 0 l 1
 35 0 l 1
 35 359 l 1
 194 359 l 1
 628 842 l 1
 257 1240 l 1
 86 1240 l 1
 86 1593 l 1
 1004 1593 l 1
 1004 1240 l 1
 922 1240 l 1
 1084 1044 l 1
 1232 1240 l 1
 1088 1240 l 1
 1088 1593 l 1
 1835 1593 l 1
 1835 1240 l 1
 1638 1240 l 1
 1305 809 l 1
 1734 360 l 1
 1886 360 l 1
 1886 0 l 1
 957 0 l 1
 957 359 l 1
 1083 359 l 1
 840 614 l 1
 634 359 l 1
 634 359 674 359 857 359 c 1
EndSplineSet
Substitution2: "'c2sc' Capitals to Small Capitals in Latin lookup 0 subtable" x.sc
EndChar

StartChar: Y
Encoding: 57 89 58
Width: 1635
Flags: HW
LayerCount: 2
Fore
SplineSet
1116 1240 m 1
 969 1240 l 1
 969 1592 l 1
 1606 1592 l 1
 1606 1240 l 1
 1427 1240 l 1
 1118 704 l 1
 1118 359 l 1
 1275 359 l 1
 1275 0 l 1
 406 0 l 1
 406 359 l 1
 561 359 l 1
 561 652 l 1
 140 1240 l 1
 28 1240 l 1
 28 1592 l 1
 880 1592 l 1
 880 1240 l 1
 789 1240 l 1
 972 973 l 1
 1116 1240 l 1
EndSplineSet
Substitution2: "'c2sc' Capitals to Small Capitals in Latin lookup 0 subtable" y.sc
EndChar

StartChar: Z
Encoding: 58 90 59
Width: 1487
Flags: HW
LayerCount: 2
Fore
SplineSet
1430 1263 m 1
 753 359 l 1
 1062 359 l 1
 1169 695 l 1
 1451 695 l 1
 1451 0 l 1
 41 0 l 1
 41 350 l 1
 719 1240 l 1
 404 1240 l 1
 324 928 l 1
 36 928 l 1
 36 1592 l 1
 1430 1592 l 1
 1430 1263 l 1
EndSplineSet
Substitution2: "'c2sc' Capitals to Small Capitals in Latin lookup 0 subtable" z.sc
EndChar

StartChar: bracketleft
Encoding: 59 91 60
Width: 786
Flags: HW
LayerCount: 2
Fore
SplineSet
36 0 m 1
 36 1623 l 1
 750 1623 l 1
 750 1322 l 1
 553 1322 l 1
 553 311 l 1
 746 311 l 1
 745 0 l 1
 36 0 l 1
EndSplineSet
EndChar

StartChar: backslash
Encoding: 60 92 61
Width: 947
Flags: HW
LayerCount: 2
Fore
SplineSet
358 0 m 1
 16 1623 l 1
 590 1623 l 1
 931 0 l 1
 358 0 l 1
EndSplineSet
EndChar

StartChar: bracketright
Encoding: 61 93 62
Width: 786
Flags: HW
LayerCount: 2
Fore
SplineSet
41 0 m 1
 40 311 l 1
 233 311 l 1
 233 1322 l 1
 36 1322 l 1
 36 1623 l 1
 750 1623 l 1
 750 0 l 1
 41 0 l 1
EndSplineSet
EndChar

StartChar: asciicircum
Encoding: 62 94 63
Width: 1438
Flags: HW
LayerCount: 2
Fore
SplineSet
902 1624 m 1
 1398 909 l 1
 933 909 l 1
 717 1242 l 1
 501 909 l 1
 36 909 l 1
 532 1624 l 1
 902 1624 l 1
EndSplineSet
EndChar

StartChar: underscore
Encoding: 63 95 64
Width: 1328
Flags: HW
LayerCount: 2
Fore
SplineSet
1262 -1 m 1
 1262 -224 l 1
 69 -224 l 1
 69 -1 l 1
 1262 -1 l 1
EndSplineSet
EndChar

StartChar: quoteleft
Encoding: 344 8216 65
Width: 651
Flags: HW
LayerCount: 2
Fore
SplineSet
586 1428 m 1
 587 1426 l 1
 430 1426 396 1365 396 1206 c 1
 585 1206 l 1
 585 840 l 1
 75 840 l 1
 59 943 51 1035 51 1117 c 0
 51 1486 218 1653 586 1653 c 1
 586 1428 l 1
EndSplineSet
EndChar

StartChar: a
Encoding: 65 97 66
Width: 1323
Flags: W
HStem: -18 242<284.422 624> 0 21G<751.429 1292> 438 192<322.59 706.419> 708 314<99 316.86> 803 288<358.704 659.219>
VStem: 32 470<241.382 415.182> 709 487<305 434.375 592 753.49>
LayerCount: 2
Fore
SplineSet
421 630 m 0xa6
 533.744 630 624.163 617 709 592 c 1
 709 637 l 2
 709 748 643 803 495 803 c 0xae
 400 803 280 708 280 708 c 1
 99 708 l 1
 99 1022 l 1x36
 262 1064 462.46 1091 588 1091 c 0
 885 1091 1196 1032 1196 750 c 2
 1196 305 l 1
 1292 305 l 1
 1292 0 l 1
 760 0 l 1x6e
 709 119 l 1
 646.375 44 511.237 -18 375 -18 c 0
 193.844 -18 32 104 32 308 c 0
 32 529 224.179 630 421 630 c 0xa6
602 224 m 0
 646 224 709 236 709 260 c 2
 709 427 l 1
 684 432 647 438 611 438 c 0
 538 438 502 382 502 327 c 0
 502 275 535 224 602 224 c 0
EndSplineSet
Substitution2: "'smcp' Lowercase to Small Capitals in Latin lookup 0 subtable" a.sc
EndChar

StartChar: b
Encoding: 66 98 67
Width: 1438
Flags: W
HStem: -18 312<757.999 1097.5> 0 21G<174 632.843> 779 313<782.881 1111> 1222 273<31 168.846> 1540 20G<463.692 656>
VStem: 174 482<318.072 744.454 965 1222> 942 472<345.83 725.75>
LayerCount: 2
Fore
SplineSet
31 1495 m 1x7e
 656 1560 l 1
 656 965 l 1
 761 1050 863 1092 962 1092 c 0
 1260 1092 1414 837 1414 538 c 0
 1414 228 1254 -18 941 -18 c 0xbe
 808 -18 721 38 665 102 c 1
 625 0 l 1
 174 0 l 1
 174 1222 l 1
 31 1222 l 1
 31 1495 l 1x7e
942 509 m 0
 942 646 918 779 796 779 c 0
 728 779 661 713 661 713 c 1
 661 344 l 1
 688 321 736 294 796 294 c 0
 896 294 942 389 942 509 c 0
EndSplineSet
Substitution2: "'smcp' Lowercase to Small Capitals in Latin lookup 0 subtable" b.sc
EndChar

StartChar: c
Encoding: 67 99 68
Width: 1081
Flags: W
HStem: -18 313<558.991 734.969> 778 314<389 724.537> 1052 20G<835.351 1021>
VStem: 30 471<349.301 713.565> 779 242<339.012 425 628 744.821>
LayerCount: 2
Fore
SplineSet
656 778 m 0xd8
 543 778 501 649 501 513 c 0
 501 399 542 295 656 295 c 0
 738 295 783 425 783 425 c 1
 1023 425 l 1
 1023 124 l 1
 1023 124 832 -18 580 -18 c 0
 238 -18 30 200 30 546 c 0
 30 860 231 1092 547 1092 c 0xd8
 638 1092 724 1060 805 995 c 1
 846 1072 l 1
 1021 1072 l 1xb8
 1021 628 l 1
 779 628 l 1
 779 707 731 778 656 778 c 0xd8
EndSplineSet
Substitution2: "'smcp' Lowercase to Small Capitals in Latin lookup 0 subtable" c.sc
EndChar

StartChar: d
Encoding: 68 100 69
Width: 1419
Flags: W
HStem: -19 313<366.618 663.006> 0 21G<783 1387> 779 311<336.5 674.337> 1222 273<629 770.375> 1540 20G<1072.77 1270>
VStem: 25 471<354.485 720.696> 783 487<330.219 748.977 960 1222>
LayerCount: 2
Fore
SplineSet
488 -19 m 0xbe
 184 -19 25 246 25 550 c 0
 25 835 193 1090 480 1090 c 0
 624 1090 704 1040 783 960 c 1
 783 1222 l 1
 629 1222 l 1
 629 1495 l 1
 1270 1560 l 1
 1270 305 l 1
 1387 305 l 1
 1387 0 l 1
 783 0 l 1x7e
 783 128 l 1
 722 47 620 -19 488 -19 c 0xbe
496 558 m 0
 496 426 526 294 648 294 c 0xbe
 716 294 783 370 783 370 c 1
 783 709 l 1
 756 740 708 779 648 779 c 0
 548 779 496 685 496 558 c 0
EndSplineSet
Substitution2: "'smcp' Lowercase to Small Capitals in Latin lookup 0 subtable" d.sc
EndChar

StartChar: e
Encoding: 69 101 70
Width: 1176
Flags: W
HStem: -17 240<576.734 787.429> 473 176<503 718> 836 256<536.083 693.744>
VStem: 30 473<310.797 473 649 770.953> 718 427<649 801.255>
LayerCount: 2
Fore
SplineSet
604 1092 m 0
 930 1092 1145 891 1145 576 c 0
 1145 531 1129 473 1129 473 c 1
 501 473 l 1
 501 342 560 223 678 223 c 0
 769 223 816 271.467 819 362 c 5
 1123 362 l 5
 1123 128 l 1
 972.909 31 839.174 -17 615 -17 c 0
 274.093 -17 30 201 30 542 c 0
 30 881 254 1092 604 1092 c 0
503 678 m 2
 503 649 l 1
 718 649 l 1
 718 670 l 2
 718 758 700 836 611 836 c 0
 536 836 503 754 503 678 c 2
EndSplineSet
Substitution2: "'smcp' Lowercase to Small Capitals in Latin lookup 0 subtable" e.sc
EndChar

StartChar: f
Encoding: 70 102 71
Width: 922
Flags: W
HStem: 0 305<46 194 681 857> 768 304<28 194 681 887> 1225 345<478.53 877.388>
VStem: 194 487<305 768 1072 1215.86>
LayerCount: 2
Fore
SplineSet
886 1523 m 1
 886 1212 l 1
 835 1221 794 1225 760 1225 c 0
 690 1225 672 1180 672 1107 c 0
 672 1096 672 1084 673 1072 c 1
 887 1072 l 1
 887 768 l 1
 681 768 l 1
 681 305 l 1
 857 305 l 1
 857 0 l 1
 46 0 l 1
 46 305 l 1
 194 305 l 1
 194 768 l 1
 28 768 l 1
 28 1072 l 1
 194 1072 l 1
 194 1167 l 2
 194 1436 335.059 1570 622 1570 c 4
 708.956 1570 886 1523 886 1523 c 1
EndSplineSet
Substitution2: "'smcp' Lowercase to Small Capitals in Latin lookup 0 subtable" f.sc
EndChar

StartChar: g
Encoding: 71 103 72
Width: 1407
Flags: W
HStem: -389 302<226.888 717.003> -39 20G<152 214> 38 266<351.5 718.672> 779 311<388.704 728.618> 1052 20G<858.2 1377>
VStem: 31 471<354.562 729.473> 783 487<-26.0426 117 324.969 764.986>
LayerCount: 2
Fore
SplineSet
152 -328 m 1xee
 152 -19 l 1
 276 -64 397 -87 516 -87 c 0
 686 -87 785 -53 785 117 c 1
 716 73 611 38 498 38 c 0
 205 38 31 255 31 548 c 0
 31 836 227 1090 510 1090 c 0xf6
 611 1090 719 1059 834 997 c 1
 867 1072 l 1
 1377 1072 l 1
 1377 768 l 1
 1270 768 l 1
 1270 135 l 2
 1270 -214 1030 -389 539 -389 c 0
 405 -389 152 -328 152 -328 c 1xee
647 304 m 0
 718 304 783 348 783 348 c 1
 783 745 l 1
 752 766 693 779 639 779 c 0
 530 779 502 653 502 532 c 0
 502 418 535 304 647 304 c 0
EndSplineSet
Substitution2: "'smcp' Lowercase to Small Capitals in Latin lookup 0 subtable" g.sc
EndChar

StartChar: h
Encoding: 72 104 73
Width: 1426
Flags: W
HStem: 0 305<40 139 626 719 1297 1403> 779 311<693.5 1060> 1540 20G<444.154 626>
VStem: 139 487<305 765.134 916 1222> 810 487<305 767.49>
LayerCount: 2
Fore
SplineSet
942 1090 m 0
 1178 1090 1297 944 1297 702 c 2
 1297 305 l 1
 1403 305 l 1
 1403 0 l 1
 810 0 l 1
 810 654 l 2
 810 737 782 779 727 779 c 0
 660 779 626 740 626 661 c 2
 626 305 l 1
 719 305 l 1
 719 0 l 1
 40 0 l 1
 40 305 l 1
 139 305 l 1
 139 1222 l 1
 35 1222 l 1
 35 1495 l 1
 626 1560 l 1
 626 916 l 1
 675 1004 776 1090 942 1090 c 0
EndSplineSet
Substitution2: "'smcp' Lowercase to Small Capitals in Latin lookup 0 subtable" h.sc
EndChar

StartChar: i
Encoding: 73 105 74
Width: 762
Flags: W
HStem: 0 305<40 142 629 733> 1052 20G<33 629> 1155 475<175.798 513.902>
VStem: 65 564<1262.91 1530.02> 142 487<305 768>
LayerCount: 2
Fore
SplineSet
629 1072 m 1xe8
 629 305 l 1
 733 305 l 1
 733 0 l 1
 40 0 l 1
 40 305 l 1
 142 305 l 1
 142 768 l 1
 33 768 l 1
 33 1072 l 1
 629 1072 l 1xe8
629 1395 m 0xf0
 629 1245.24 500.449 1155 343 1155 c 0
 187.44 1155 65 1246.2 65 1395 c 0
 65 1543.67 185.433 1630 343 1630 c 0
 503.439 1630 629 1545.59 629 1395 c 0xf0
EndSplineSet
Substitution2: "'smcp' Lowercase to Small Capitals in Latin lookup 0 subtable" i.sc
EndChar

StartChar: j
Encoding: 74 106 75
Width: 692
Flags: HW
LayerCount: 2
Fore
SplineSet
169 -9 m 1
 167 -65 97 -72 44 -72 c 2
 32 -72 l 1
 32 -398 l 1
 449 -398 656 -269 656 129 c 2
 656 1072 l 1
 39 1072 l 1
 39 768 l 1
 169 768 l 1
 169 -9 l 1
659 1385 m 0
 659 1229 530 1135 372 1135 c 0
 217 1135 95 1230 95 1385 c 0
 95 1540 215 1630 372 1630 c 0
 533 1630 659 1542 659 1385 c 0
EndSplineSet
Substitution2: "'smcp' Lowercase to Small Capitals in Latin lookup 0 subtable" j.sc
EndChar

StartChar: k
Encoding: 75 107 76
Width: 1407
Flags: W
HStem: 0 305<36 139 1229 1384> 768 304<732 827 1195 1366> 1540 20G<444.154 626>
VStem: 36 590<0 305 1222 1495> 139 487<305 438 587 1222>
LayerCount: 2
Fore
SplineSet
626 438 m 1xe8
 626 0 l 1
 36 0 l 1
 36 305 l 1xf0
 139 305 l 1
 139 1222 l 1
 35 1222 l 1
 35 1495 l 1
 626 1560 l 1
 626 587 l 1
 827 768 l 1
 732 768 l 1
 732 1072 l 1
 1366 1072 l 1
 1366 768 l 1
 1195 768 l 1
 1195 769 1023 618 1022 618 c 2
 1229 305 l 1
 1384 305 l 1
 1384 0 l 1
 911 0 l 1
 626 438 l 1xe8
EndSplineSet
Substitution2: "'smcp' Lowercase to Small Capitals in Latin lookup 0 subtable" k.sc
EndChar

StartChar: l
Encoding: 76 108 77
Width: 774
Flags: W
HStem: 0 304<43 158 645 743> 1222 273<33 158> 1540 20G<456.692 645>
VStem: 158 487<304 1222>
LayerCount: 2
Fore
SplineSet
645 304 m 5
 743 304 l 5
 743 0 l 5
 43 0 l 5
 43 304 l 5
 158 304 l 5
 158 1222 l 5
 33 1222 l 5
 33 1495 l 5
 645 1560 l 5
 645 304 l 5
EndSplineSet
Substitution2: "'smcp' Lowercase to Small Capitals in Latin lookup 0 subtable" l.sc
EndChar

StartChar: m
Encoding: 77 109 78
Width: 2075
Flags: W
HStem: 0 305<35 149 591 671 1248 1333 1923 2042> 779 313<699 943.809 1354.5 1623.07>
VStem: 149 442<305 751.235> 811 437<305 750.049> 1468 455<305 760.573>
LayerCount: 2
Fore
SplineSet
35 1032 m 1
 591 1092 l 1
 591 902 l 1
 664 1003 788 1092 956 1092 c 0
 1091 1092 1177 996 1224 891 c 1
 1314 1025 1430 1092 1573 1092 c 0
 1798 1092 1923 958 1923 729 c 2
 1923 305 l 1
 2042 305 l 1
 2042 0 l 1
 1468 0 l 1
 1468 671 l 1
 1462 731 1432 779 1368 779 c 0
 1279 779 1248 702 1248 615 c 2
 1248 305 l 1
 1333 305 l 1
 1333 0 l 1
 811 0 l 1
 811 674 l 2
 811 741 774 779 699 779 c 0
 610 779 591 671 591 582 c 2
 591 304 l 1
 671 304 l 1
 671 0 l 1
 35 0 l 1
 35 305 l 1
 149 305 l 1
 149 767 l 1
 35 767 l 1
 35 1032 l 1
EndSplineSet
Substitution2: "'smcp' Lowercase to Small Capitals in Latin lookup 0 subtable" m.sc
EndChar

StartChar: n
Encoding: 78 110 79
Width: 1470
Flags: W
HStem: 0 305<35 151 638 726 1319 1439> 768 264<35 151> 1072 20G<437 638 912.5 1106>
VStem: 151 487<305 759.594> 832 487<305 753.706>
LayerCount: 2
Fore
SplineSet
996 1092 m 0
 1216 1092 1319 955 1319 680 c 2
 1319 305 l 1
 1439 305 l 1
 1439 0 l 1
 832 0 l 1
 832 669 l 2
 832 726 796 779 742 779 c 0
 680 779 638 728 638 666 c 2
 638 305 l 1
 726 305 l 1
 726 0 l 1
 35 0 l 1
 35 305 l 1
 151 305 l 1
 151 768 l 1
 35 768 l 1
 35 1032 l 1
 638 1092 l 1
 638 916 l 1
 706 1021 829 1092 996 1092 c 0
EndSplineSet
Substitution2: "'smcp' Lowercase to Small Capitals in Latin lookup 0 subtable" n.sc
EndChar

StartChar: o
Encoding: 79 111 80
Width: 1262
Flags: W
HStem: -18 312<559.924 701.854> 779 312<557.84 704.16>
VStem: 30 471<356.805 729.299> 761 471<356.805 729.299>
LayerCount: 2
Fore
SplineSet
631 1091 m 0
 991 1091 1232 902 1232 547 c 0
 1232 187 992 -18 631 -18 c 0
 270 -18 30 187 30 547 c 0
 30 902 271 1091 631 1091 c 0
631 294 m 0
 715 294 761 422 761 546 c 0
 761 664 720 779 631 779 c 0
 542 779 501 664 501 546 c 0
 501 422 546 294 631 294 c 0
EndSplineSet
Substitution2: "'smcp' Lowercase to Small Capitals in Latin lookup 0 subtable" o.sc
EndChar

StartChar: p
Encoding: 80 112 81
Width: 1431
Flags: HW
HStem: -397 303<35 152 639 750> -17 311<733.5 1101.5> 768 262<35 152> 779 314<739.54 1064.33> 1072 20G<444.161 639>
VStem: 152 487<-94 119 337.506 736.401> 934 471<353.314 718.812>
LayerCount: 2
Fore
SplineSet
953 1093 m 0
 1249 1093 1405 839 1405 541 c 0
 1405 242 1252 -17 951 -17 c 0
 805 -17 721 53 639 119 c 1
 639 -96 l 1
 750 -96 l 1
 750 -397 l 1
 35 -397 l 1
 35 -94 l 1
 152 -94 l 1
 152 768 l 1
 35 768 l 1
 35 1030 l 1
 639 1092 l 1
 639 922 l 1
 696 1003 795 1093 953 1093 c 0
934 535 m 0
 934 699 880 779 771 779 c 0
 701 779 639 685 639 685 c 1
 639 390 l 1
 639 390 700 294 767 294 c 0
 893 294 934 405 934 535 c 0
EndSplineSet
Substitution2: "'smcp' Lowercase to Small Capitals in Latin lookup 0 subtable" p.sc
EndChar

StartChar: q
Encoding: 81 113 82
Width: 1411
Flags: HW
LayerCount: 2
Fore
SplineSet
490 1092 m 0
 624 1092 692 1055 772 985 c 1
 845 1072 l 1
 1353 1072 l 1
 1353 768 l 1
 1259 768 l 1
 1259 -94 l 1
 1377 -94 l 1
 1377 -398 l 1
 661 -398 l 1
 661 -96 l 1
 772 -96 l 1
 772 128 l 1
 704 50 613 -17 472 -17 c 0
 163 -17 26 257 26 571 c 0
 26 859 203 1092 490 1092 c 0
643 329 m 0
 707 329 772 384 772 384 c 1
 772 711 l 1
 772 711 705 768 640 768 c 0
 545 768 497 697 497 554 c 0
 497 440 530 329 643 329 c 0
EndSplineSet
Substitution2: "'smcp' Lowercase to Small Capitals in Latin lookup 0 subtable" q.sc
EndChar

StartChar: r
Encoding: 82 114 83
Width: 981
Flags: W
HStem: 0 305<35 151 619 756> 768 264<34 151> 1072 20G<436 637 888.5 936>
VStem: 151 468<305 632.071>
LayerCount: 2
Fore
SplineSet
34 1032 m 1
 637 1092 l 1
 637 917 l 1
 701 1026 841 1091 936 1091 c 1
 936 715 l 1
 870 717 l 1
 714 717 619 627 619 496 c 2
 619 305 l 1
 756 305 l 1
 756 0 l 1
 35 0 l 1
 35 305 l 1
 151 305 l 1
 151 768 l 1
 34 768 l 1
 34 1032 l 1
EndSplineSet
Substitution2: "'smcp' Lowercase to Small Capitals in Latin lookup 0 subtable" r.sc
EndChar

StartChar: s
Encoding: 83 115 84
Width: 1120
Flags: W
HStem: -19.6602 262.716<399.247 766.37> 0 21G<67 266.759> 741 331<851 1019> 847.318 243.682<382.877 736.252>
VStem: 67 228<278.038 397> 67 197<0 103.936> 818 201<741 824.424>
LayerCount: 2
Back
SplineSet
579 830 m 4x13
 579 766 656 741 719 724 c 4
 919 672 1050 570 1050 355 c 4
 1050 119 884 -18 599 -18 c 4x93
 456 -18 344 42 280 116 c 5
 264 0 l 5
 67 0 l 5x45
 67 397 l 5
 295 397 l 5x49
 310 314 345 229 445 229 c 4
 497 229 523 255 523 307 c 4
 523 361 479 390 434 406 c 4
 242 476 74 536 74 756 c 4
 74 996 257 1091 510 1091 c 4x93
 708 1091 814 982 814 982 c 5
 851 1072 l 5
 1019 1072 l 5
 1019 741 l 5
 818 741 l 5x23
 782 830 771 897 671 897 c 4
 624 897 579 877 579 830 c 4x13
EndSplineSet
Fore
SplineSet
431.588 243.056 m 0x4a
 489.006 243.056 524.552 267.264 524.552 316.06 c 0
 524.552 460.216 73.3718 438.683 73.3718 754.029 c 0
 73.3718 995.812 255.754 1091 510 1091 c 0x5a
 758 1091 814 982 814 982 c 1
 851 1072 l 1
 1019 1072 l 1
 1019 741 l 1
 818 741 l 1x2a
 818 817.528 749.138 847.318 685.341 847.318 c 0
 634.057 847.318 603.803 822.685 603.803 791.833 c 0
 603.803 758.824 638.436 718.695 719 694 c 1
 917.267 637.914 1050 544.173 1050 335 c 0
 1050 135.064 897.825 -19.6602 634.915 -19.6602 c 0x9a
 475.306 -19.6602 345.351 28.6352 280 116 c 1
 264 0 l 1
 67 0 l 1x46
 67 397 l 1
 295 397 l 1
 295.553 285.028 368.352 243.056 431.588 243.056 c 0x4a
EndSplineSet
Substitution2: "'smcp' Lowercase to Small Capitals in Latin lookup 0 subtable" s.sc
EndChar

StartChar: t
Encoding: 84 116 85
Width: 870
Flags: W
HStem: -18 352<403.5 785.684> 768 304<26 148 635 808>
VStem: 148 487<357.361 768 1072 1301>
LayerCount: 2
Fore
SplineSet
733 334 m 4
 763 334 799 339 841 348 c 5
 841 49 l 5
 747 6 624 -18 534 -18 c 4
 273 -18 148 115 148 382 c 6
 148 768 l 5
 26 768 l 5
 26 1072 l 5
 148 1072 l 5
 148 1301 l 5
 635 1406 l 5
 635 1072 l 5
 808 1072 l 5
 808 768 l 5
 635 768 l 5
 635 438 l 6
 635 377 666 334 733 334 c 4
EndSplineSet
Substitution2: "'smcp' Lowercase to Small Capitals in Latin lookup 0 subtable" t.sc
Substitution2: "alt endings-t" t.fin
EndChar

StartChar: u
Encoding: 85 117 86
Width: 1466
Flags: W
HStem: 0 21G<363.5 554 828 1434> 768 264<31 147 728 827> 1072 20G<433 634 1118.67 1314>
VStem: 147 487<336.144 768> 827 487<336.88 768>
LayerCount: 2
Fore
SplineSet
728 1032 m 1
 1314 1092 l 1
 1314 305 l 1
 1434 305 l 1
 1434 0 l 1
 828 0 l 1
 828 156 l 1
 760 51 638 -18 470 -18 c 0
 257 -18 147 116 147 385 c 2
 147 768 l 1
 31 768 l 1
 31 1032 l 1
 634 1092 l 1
 634 438 l 2
 634 378 668 318 724 318 c 0
 787 318 827 372 827 436 c 2
 827 768 l 1
 728 768 l 1
 728 1032 l 1
EndSplineSet
Substitution2: "'smcp' Lowercase to Small Capitals in Latin lookup 0 subtable" u.sc
EndChar

StartChar: v
Encoding: 86 118 87
Width: 1405
Flags: W
HStem: 0 21G<459.37 947.682> 768 304<27 174 640 733 827 930 1235 1378>
LayerCount: 2
Fore
SplineSet
174 768 m 1
 27 768 l 1
 27 1072 l 1
 733 1072 l 1
 733 768 l 1
 640 768 l 1
 796 330 l 1
 930 768 l 1
 827 768 l 1
 827 1072 l 1
 1378 1072 l 1
 1378 768 l 1
 1235 768 l 1
 940 0 l 5
 467 0 l 5
 174 768 l 1
EndSplineSet
Substitution2: "'smcp' Lowercase to Small Capitals in Latin lookup 0 subtable" v.sc
EndChar

StartChar: w
Encoding: 87 119 88
Width: 1956
Flags: W
HStem: 0 21G<351.281 809.023 1076.95 1563.89> 768 304<31 100 581 695 1369 1487 1784 1926>
DStem2: 1388 379 1558 0 0.282302 0.959326<0 401.126>
LayerCount: 2
Fore
SplineSet
1487 768 m 1
 1369 768 l 1
 1369 1072 l 1
 1926 1072 l 1
 1926 768 l 1
 1784 768 l 1
 1558 0 l 1
 1083 0 l 1
 953 430 l 1
 802 0 l 1
 358 0 l 1
 100 768 l 1
 31 768 l 1
 31 1072 l 1
 695 1072 l 1
 695 768 l 1
 581 768 l 1
 694 392 l 1
 904 1072 l 1
 1170 1072 l 1
 1388 379 l 1
 1487 768 l 1
EndSplineSet
Substitution2: "'smcp' Lowercase to Small Capitals in Latin lookup 0 subtable" w.sc
EndChar

StartChar: x
Encoding: 88 120 89
Width: 1236
Flags: W
HStem: 0 305<35 186 1070 1201> 768 304<55 184 1040 1170>
DStem2: 549 1072 184 768 0.578017 -0.816024<37.0951 298.461 642.959 927.038>
LayerCount: 2
Fore
SplineSet
1201 0 m 1
 728 0 l 1
 539 277 l 1
 332 0 l 1
 35 0 l 1
 35 305 l 1
 186 305 l 1
 366 512 l 1
 184 768 l 1
 55 768 l 1
 55 1072 l 1
 549 1072 l 1
 711 821 l 1
 896 1072 l 1
 1170 1072 l 1
 1170 768 l 1
 1040 768 l 1
 877 580 l 1
 1070 305 l 1
 1201 305 l 1
 1201 0 l 1
EndSplineSet
Substitution2: "'smcp' Lowercase to Small Capitals in Latin lookup 0 subtable" x.sc
EndChar

StartChar: y
Encoding: 89 121 90
Width: 1475
Flags: W
HStem: -377 315<315 567> 768 304<28 156 680 778 888 998 1339 1448>
LayerCount: 2
Fore
SplineSet
315 -377 m 1
 315 -62 l 1
 567 -62 l 1
 622 31 l 1
 156 768 l 1
 28 768 l 1
 28 1072 l 1
 778 1072 l 1
 778 768 l 1
 680 768 l 1
 846 454 l 1
 998 768 l 1
 888 768 l 1
 888 1072 l 1
 1448 1072 l 1
 1448 768 l 1
 1339 768 l 1
 764 -374 l 1
 315 -377 l 1
EndSplineSet
Substitution2: "'smcp' Lowercase to Small Capitals in Latin lookup 0 subtable" y.sc
EndChar

StartChar: z
Encoding: 90 122 91
Width: 1155
Flags: HW
LayerCount: 2
Fore
SplineSet
323 779 m 1
 259 636 l 1
 62 636 l 1
 62 1072 l 1
 1084 1072 l 1
 1084 795 l 1
 615 294 l 1
 902 294 l 1
 937 451 l 1
 1120 451 l 1
 1120 0 l 1
 35 0 l 1
 35 283 l 1
 529 779 l 1
 323 779 l 1
EndSplineSet
Substitution2: "'smcp' Lowercase to Small Capitals in Latin lookup 0 subtable" z.sc
EndChar

StartChar: braceleft
Encoding: 91 123 92
Width: 858
Flags: HW
LayerCount: 2
Fore
SplineSet
822 -18 m 1
 438 -18 177 183 177 559 c 0
 177 670 123 718 12 722 c 1
 12 962 l 1
 122 966 176 1014 176 1125 c 0
 176 1501 438 1702 822 1702 c 1
 822 1371 l 1
 714 1371 660 1289 660 1125 c 0
 660 998 576 903 409 841 c 1
 576 780 660 686 660 559 c 0
 660 395 714 313 822 313 c 1
 822 -18 l 1
12 962 m 1
 12 965 l 1
 11 962 l 1
 12 962 l 1
EndSplineSet
EndChar

StartChar: bar
Encoding: 92 124 93
Width: 467
Flags: HW
LayerCount: 2
Fore
SplineSet
431 1623 m 1
 431 0 l 1
 36 0 l 1
 36 1623 l 1
 431 1623 l 1
EndSplineSet
EndChar

StartChar: braceright
Encoding: 93 125 94
Width: 858
Flags: HW
LayerCount: 2
Fore
SplineSet
36 1704 m 1
 420 1704 681 1504 681 1128 c 0
 681 1017 735 969 846 965 c 1
 846 724 l 1
 736 720 682 672 682 561 c 0
 682 185 420 -16 36 -16 c 1
 36 315 l 1
 144 315 198 397 198 561 c 0
 198 688 282 782 449 843 c 1
 282 905 198 1000 198 1127 c 0
 198 1291 144 1373 36 1373 c 1
 36 1704 l 1
846 724 m 1
 846 722 l 1
 847 724 l 1
 846 724 l 1
EndSplineSet
EndChar

StartChar: asciitilde
Encoding: 94 126 95
Width: 1270
Flags: HW
LayerCount: 2
Fore
SplineSet
907 922 m 0
 985 922 1117 1116 1117 1116 c 1
 1246 1031 l 1
 1156 897 1112 629 895 629 c 1
 893 631 l 1
 667 631 578 833 367 833 c 0
 288 833 155 634 155 634 c 1
 24 720 l 1
 113 856 160 1121 378 1121 c 0
 604 1121 694 922 907 922 c 0
EndSplineSet
EndChar

StartChar: exclamdown
Encoding: 95 161 96
Width: 689
Flags: HW
LayerCount: 2
Fore
SplineSet
556 1072 m 1
 135 1074 l 1
 53 299 l 1
 53 0 l 1
 640 0 l 1
 640 299 l 1
 556 1072 l 1
631 1408 m 0
 631 1251 503 1158 345 1158 c 1
 343 1157 l 1
 188 1157 66 1253 66 1408 c 0
 66 1562 187 1653 344 1653 c 0
 505 1653 631 1565 631 1408 c 0
EndSplineSet
EndChar

StartChar: cent
Encoding: 96 162 97
Width: 1151
Flags: W
VStem: 45 475<428.988 791.988> 610 112<-221 62 388 838 1169 1476> 797 242<404.577 505 707 824.281>
LayerCount: 2
Fore
SplineSet
45 625 m 4
 45 939 248 1172 564 1172 c 4
 579 1172 595 1171 610 1169 c 5
 610 1476 l 5
 722 1476 l 5
 722 1136 l 5
 755 1121 790 1100 823 1074 c 5
 864 1151 l 5
 1039 1151 l 5
 1039 707 l 5
 797 707 l 5
 797 773 766 824 722 846 c 5
 722 385 l 5
 761 400 799 455 799 505 c 5
 1039 505 l 5
 1039 204 l 5
 970 135 722 71 722 71 c 5
 722 -221 l 5
 610 -221 l 5
 610 62 l 5
 596 62 l 6
 254 62 45 279 45 625 c 4
520 592 m 4
 520 501 548 417 610 388 c 5
 610 838 l 5
 549 799 520 717 520 592 c 4
EndSplineSet
EndChar

StartChar: sterling
Encoding: 97 163 98
Width: 1235
Flags: W
HStem: -19 349<51.0482 404.5 730.192 1185.65> 28 311<42 136.823 1020.4 1193> 718 225<124 248 723 976> 1264 344<768.439 1157.04>
VStem: 248 475<353.868 718 943 1220.74>
LayerCount: 2
Fore
SplineSet
952 1264 m 0x78
 823 1264 723 1237 723 1117 c 2
 723 943 l 1
 976 943 l 1
 976 718 l 1
 723 718 l 1
 723 365 l 1
 793.583 342.231 913.172 330 1018 330 c 0xb8
 1069 330 1127 333 1193 339 c 1
 1193 28 l 1x78
 1102 -3 1011 -19 921 -19 c 0xb8
 752 -19 667 38 667 152 c 1
 598 37 484 -20 325 -20 c 0
 250 -20 42 28 42 28 c 1
 42 339 l 1
 81 330 113 326 138 326 c 0
 238 326 248 402 248 520 c 2
 248 718 l 1
 124 718 l 1
 124 943 l 1
 248 943 l 1
 248 1207 l 2
 248 1503 544 1608 842 1608 c 0
 965 1608 1159 1583 1159 1583 c 1
 1159 1251 l 1
 1078 1260 1009 1264 952 1264 c 0x78
EndSplineSet
EndChar

StartChar: yen
Encoding: 99 165 99
Width: 1662
Flags: HW
LayerCount: 2
Fore
SplineSet
1099 1221 m 0
 1099 1278 1060 1272 982 1272 c 1
 982 1622 l 1
 1619 1622 l 1
 1619 1272 l 1
 1545 1272 l 2
 1412 1272 1385 1178 1331 1093 c 2
 1230 934 l 1
 1541 934 l 1
 1541 760 l 1
 1127 760 l 1
 1127 628 l 1
 1541 628 l 1
 1541 454 l 1
 1127 454 l 1
 1127 369 l 1
 1284 369 l 1
 1284 -2 l 1
 415 -2 l 1
 415 369 l 1
 570 369 l 1
 570 454 l 1
 148 454 l 1
 148 628 l 1
 570 628 l 1
 570 670 l 1
 507 760 l 1
 148 760 l 1
 151 936 l 1
 388 936 l 1
 152 1274 l 1
 40 1274 l 1
 40 1622 l 1
 892 1622 l 1
 892 1274 l 1
 801 1274 l 1
 819 1250 968 1019 985 993 c 1
 1061 1108 1099 1184 1099 1221 c 0
EndSplineSet
EndChar

StartChar: section
Encoding: 101 167 100
Width: 1016
Flags: HW
LayerCount: 2
Fore
SplineSet
475 209 m 0
 522 209 563 238 563 286 c 0
 563 525 40 567 40 837 c 1
 31 833 l 1
 31 963 131 1056 234 1093 c 1
 124 1172 69 1258 69 1351 c 0
 69 1522 242 1634 421 1634 c 0
 520 1634 636 1617 684 1569 c 1
 711 1620 l 1
 879 1620 l 1
 879 1297 l 1
 678 1297 l 1
 635 1392 l 1
 618 1425 579 1463 533 1463 c 0
 486 1463 451 1423 451 1373 c 0
 451 1175 974 1105 974 852 c 0
 974 702 883 589 762 553 c 1
 869 488 923 402 923 295 c 0
 923 121 749 -18 567 -18 c 0
 435 -18 347 0 279 68 c 1
 243 1 l 1
 73 1 l 1
 73 379 l 1
 294 379 l 1
 309 294 377 209 475 209 c 0
678 817 m 0
 678 915 450 985 450 985 c 1
 450 985 348 915 348 875 c 0
 348 785 592 685 592 685 c 1
 592 685 678 766 678 817 c 0
EndSplineSet
EndChar

StartChar: currency
Encoding: 98 164 101
Width: 1234
Flags: HW
LayerCount: 2
Fore
SplineSet
40 1097 m 2
 40 1098 l 2
 40 1238 78 1356 155 1451 c 1
 88 1519 l 1
 191 1622 l 1
 262 1550 l 1
 364 1620 481 1655 614 1655 c 0
 751 1655 870 1618 972 1545 c 1
 1049 1622 l 1
 1152 1519 l 1
 1078 1445 l 1
 1151 1350 1188 1234 1188 1097 c 0
 1188 955 1149 836 1071 741 c 1
 1152 660 l 1
 1049 557 l 1
 963 643 l 1
 862 574 746 540 614 540 c 0
 485 540 371 573 272 638 c 1
 191 557 l 1
 88 660 l 1
 162 734 l 1
 81 831 40 952 40 1097 c 2
613 701 m 0
 843 701 994 864 994 1099 c 0
 994 1162 983 1219 961 1270 c 1
 958 1268 l 1
 906 1397 784 1493 612 1493 c 0
 382 1493 232 1331 232 1097 c 0
 232 862 383 701 613 701 c 0
EndSplineSet
EndChar

StartChar: quotesingle
Encoding: 7 39 102
Width: 561
Flags: HW
LayerCount: 2
Fore
SplineSet
41 1624 m 1
 521 1624 l 1
 421 945 l 1
 121 945 l 1
 41 1624 l 1
EndSplineSet
EndChar

StartChar: quotedblleft
Encoding: 347 8220 103
Width: 1282
Flags: HW
LayerCount: 2
Fore
SplineSet
1217 1428 m 1
 1218 1426 l 1
 1061 1426 1027 1365 1027 1206 c 1
 1216 1206 l 1
 1216 840 l 1
 706 840 l 1
 690 943 682 1035 682 1117 c 0
 682 1486 849 1653 1217 1653 c 1
 1217 1428 l 1
587 1426 m 1
 588 1424 l 1
 431 1424 397 1363 397 1204 c 1
 586 1204 l 1
 586 838 l 1
 76 838 l 1
 60 941 52 1033 52 1115 c 0
 52 1484 219 1651 587 1651 c 1
 587 1426 l 1
EndSplineSet
EndChar

StartChar: guillemotleft
Encoding: 105 171 104
Width: 1314
Flags: HW
LayerCount: 2
Fore
SplineSet
659 669 m 1
 1085 1073 l 1
 1276 849 l 1
 961 534 l 1
 1276 219 l 1
 1085 -5 l 1
 659 399 l 1
 659 669 l 1
49 669 m 1
 475 1073 l 1
 666 849 l 1
 351 534 l 1
 666 219 l 1
 475 -5 l 1
 49 399 l 1
 49 669 l 1
EndSplineSet
EndChar

StartChar: endash
Encoding: 342 8211 107
Width: 783
Flags: HW
LayerCount: 2
Fore
SplineSet
715 836 m 1
 715 537 l 1
 68 537 l 1
 68 836 l 1
 715 836 l 1
EndSplineSet
EndChar

StartChar: periodcentered
Encoding: 117 183 108
Width: 670
Flags: HW
LayerCount: 2
Fore
SplineSet
615 764 m 0
 615 607 487 514 329 514 c 1
 327 513 l 1
 172 513 50 609 50 764 c 0
 50 918 171 1009 328 1009 c 0
 489 1009 615 921 615 764 c 0
EndSplineSet
EndChar

StartChar: paragraph
Encoding: 116 182 109
Width: 1461
Flags: HW
LayerCount: 2
Fore
SplineSet
114 1181 m 0
 114 1541 399 1636 824 1636 c 0
 1025 1636 1234 1623 1407 1623 c 1
 1407 1268 l 1
 1256 1268 l 1
 1256 363 l 1
 1412 363 l 1
 1412 0 l 1
 1003 0 l 1
 1003 1270 l 1
 878 1270 l 1
 878 0 l 1
 421 0 l 1
 421 363 l 1
 607 363 l 1
 607 738 l 1
 315 739 114 930 114 1181 c 0
EndSplineSet
EndChar

StartChar: bullet
Encoding: 350 8226 110
Width: 899
Flags: HW
LayerCount: 2
Fore
SplineSet
446 140 m 0
 210 140 57 297 57 537 c 1
 53 546 l 1
 53 775 217 917 443 917 c 0
 676 917 845 771 845 536 c 0
 845 296 683 140 446 140 c 0
EndSplineSet
EndChar

StartChar: quotesinglbase
Encoding: 346 8218 111
Width: 593
Flags: HW
LayerCount: 2
Fore
SplineSet
35 -223 m 1
 34 -224 l 1
 35 -224 l 1
 35 -223 l 1
35 -224 m 1
 193 -224 225 -161 225 -1 c 1
 36 -1 l 1
 36 365 l 1
 546 365 l 1
 562 262 570 170 570 88 c 0
 570 -281 403 -448 35 -448 c 1
 35 -224 l 1
EndSplineSet
EndChar

StartChar: quotedblbase
Encoding: 349 8222 112
Width: 1235
Flags: HW
LayerCount: 2
Fore
SplineSet
671 -223 m 1
 670 -224 l 1
 671 -224 l 1
 671 -223 l 1
35 -224 m 1
 34 -225 l 1
 35 -225 l 1
 35 -224 l 1
671 -224 m 1
 829 -224 861 -161 861 -1 c 1
 672 -1 l 1
 672 365 l 1
 1182 365 l 1
 1198 262 1206 170 1206 88 c 0
 1206 -281 1039 -448 671 -448 c 1
 671 -224 l 1
35 -225 m 1
 193 -225 225 -162 225 -2 c 1
 36 -2 l 1
 36 364 l 1
 546 364 l 1
 562 261 570 169 570 87 c 0
 570 -282 403 -449 35 -449 c 1
 35 -225 l 1
EndSplineSet
EndChar

StartChar: quotedblright
Encoding: 348 8221 113
Width: 1300
Flags: HW
LayerCount: 2
Fore
SplineSet
715 1034 m 1
 714 1032 l 1
 715 1032 l 1
 715 1034 l 1
63 1032 m 1
 62 1030 l 1
 63 1030 l 1
 63 1032 l 1
715 1032 m 1
 873 1032 905 1095 905 1255 c 1
 716 1255 l 1
 716 1621 l 1
 1226 1621 l 1
 1242 1518 1250 1426 1250 1345 c 0
 1250 976 1083 809 715 809 c 1
 715 1032 l 1
63 1030 m 1
 221 1030 253 1093 253 1253 c 1
 64 1253 l 1
 64 1619 l 1
 574 1619 l 1
 590 1516 598 1424 598 1343 c 0
 598 974 431 807 63 807 c 1
 63 1030 l 1
EndSplineSet
EndChar

StartChar: guillemotright
Encoding: 121 187 114
Width: 1311
Flags: HW
LayerCount: 2
Fore
SplineSet
655 399 m 1
 229 -5 l 1
 38 219 l 1
 353 534 l 1
 38 849 l 1
 229 1073 l 1
 655 669 l 1
 655 399 l 1
1265 399 m 1
 839 -5 l 1
 648 219 l 1
 963 534 l 1
 648 849 l 1
 839 1073 l 1
 1265 669 l 1
 1265 399 l 1
EndSplineSet
EndChar

StartChar: questiondown
Encoding: 125 191 115
Width: 1288
Flags: HW
LayerCount: 2
Fore
SplineSet
652 340 m 0
 582 340 556 403 556 471 c 0
 556 590 952 828 952 828 c 1
 953 1180 l 1
 606 1180 l 1
 606 995 l 1
 352 908 44 785 44 448 c 0
 44 144 333 -16 645 -16 c 0
 976 -16 1236 194 1254 502 c 1
 782 502 l 1
 775 394 732 340 652 340 c 0
773 1252 m 0
 612 1252 486 1340 486 1497 c 0
 486 1653 616 1748 773 1748 c 1
 773 1747 l 1
 929 1747 1050 1652 1050 1497 c 0
 1050 1343 929 1252 773 1252 c 0
EndSplineSet
EndChar

StartChar: grave
Encoding: 64 96 116
Width: 756
Flags: HW
LayerCount: 2
Fore
SplineSet
232 1708 m 1
 706 1271 l 1
 602 1130 l 1
 48 1443 l 1
 232 1708 l 1
EndSplineSet
EndChar

StartChar: acute
Encoding: 114 180 117
Width: 754
Flags: HW
LayerCount: 2
Fore
SplineSet
706 1443 m 1
 152 1130 l 1
 48 1271 l 1
 522 1708 l 1
 706 1443 l 1
EndSplineSet
EndChar

StartChar: circumflex
Encoding: 331 710 118
Width: 923
Flags: HW
LayerCount: 2
Fore
SplineSet
596 1600 m 1
 870 1224 l 1
 716 1123 l 1
 461 1368 l 1
 206 1123 l 1
 52 1224 l 1
 325 1601 l 1
 596 1600 l 1
EndSplineSet
EndChar

StartChar: tilde
Encoding: 337 732 119
Width: 1000
Flags: HW
LayerCount: 2
Fore
SplineSet
319 1397 m 0
 457 1397 527 1523 672 1523 c 0
 838 1523 875 1328 944 1231 c 1
 831 1157 l 1
 772 1214 741 1266 685 1266 c 0
 561 1266 460 1146 329 1146 c 0
 161 1146 124 1335 54 1434 c 1
 168 1509 l 1
 229 1450 263 1397 319 1397 c 0
EndSplineSet
EndChar

StartChar: .notdef
Encoding: 357 -1 120
Width: 885
Flags: W
HStem: 1183 335<68 816>
LayerCount: 2
Fore
SplineSet
816 1183 m 1
 68 1183 l 1
 68 1518 l 1
 816 1518 l 1
 816 1183 l 1
EndSplineSet
EndChar

StartChar: breve
Encoding: 333 728 121
Width: 926
Flags: HW
LayerCount: 2
Fore
SplineSet
867 1621 m 1
 867 1377 715 1245 464 1245 c 1
 462 1243 l 1
 208 1243 59 1374 59 1620 c 1
 311 1620 l 1
 311 1526 374 1460 463 1460 c 0
 553 1460 615 1527 615 1621 c 1
 867 1621 l 1
EndSplineSet
EndChar

StartChar: dotaccent
Encoding: 334 729 122
Width: 685
Flags: HW
LayerCount: 2
Fore
SplineSet
624 1395 m 0
 624 1238 496 1145 338 1145 c 1
 336 1144 l 1
 181 1144 59 1240 59 1395 c 0
 59 1549 180 1640 337 1640 c 0
 498 1640 624 1552 624 1395 c 0
EndSplineSet
EndChar

StartChar: dieresis
Encoding: 102 168 123
Width: 1184
Flags: HW
LayerCount: 2
Fore
SplineSet
56 1344 m 0
 56 1478 153 1571 282 1571 c 0
 412 1571 508 1478 508 1342 c 1
 506 1341 l 1
 506 1206 412 1111 283 1111 c 0
 152 1111 56 1207 56 1344 c 0
671 1343 m 0
 671 1477 768 1570 897 1570 c 0
 1027 1570 1123 1477 1123 1341 c 1
 1121 1340 l 1
 1121 1205 1027 1110 898 1110 c 0
 767 1110 671 1206 671 1343 c 0
EndSplineSet
EndChar

StartChar: ring
Encoding: 335 730 124
Width: 668
Flags: HW
LayerCount: 2
Fore
SplineSet
169 1388 m 0
 169 1301 238 1240 329 1240 c 0
 422 1240 493 1300 493 1388 c 0
 493 1476 422 1533 329 1533 c 0
 237 1533 169 1475 169 1388 c 0
328 1633 m 0
 487 1633 609 1538 609 1389 c 0
 609 1241 486 1138 329 1138 c 1
 328 1139 l 1
 173 1139 57 1243 57 1390 c 0
 57 1536 172 1633 328 1633 c 0
EndSplineSet
EndChar

StartChar: cedilla
Encoding: 118 184 125
Width: 512
Flags: HW
LayerCount: 2
Fore
SplineSet
247 -272 m 0
 247 -206 137 -119 137 -119 c 1
 137 0 l 1
 316 -3 l 1
 316 -122 l 1
 405 -173 449 -228 449 -287 c 0
 449 -423 234 -487 81 -487 c 2
 60 -487 l 1
 60 -374 l 1
 155 -373 247 -350 247 -272 c 0
EndSplineSet
EndChar

StartChar: hungarumlaut
Encoding: 338 733 126
Width: 1011
Flags: HW
LayerCount: 2
Fore
SplineSet
507 1695 m 1
 219 1128 l 1
 54 1188 l 1
 207 1814 l 1
 507 1695 l 1
961 1604 m 1
 538 1129 l 1
 394 1228 l 1
 701 1795 l 1
 961 1604 l 1
EndSplineSet
EndChar

StartChar: ogonek
Encoding: 336 731 127
Width: 527
Flags: HW
LayerCount: 2
Fore
SplineSet
66 -288 m 0
 66 -186 231 0 231 0 c 1
 411 0 l 1
 411 0 268 -238 268 -273 c 0
 268 -351 360 -374 455 -375 c 1
 455 -488 l 1
 434 -488 l 2
 281 -488 66 -424 66 -288 c 0
EndSplineSet
EndChar

StartChar: caron
Encoding: 332 711 128
Width: 924
Flags: HW
LayerCount: 2
Fore
SplineSet
327 1149 m 1
 54 1526 l 1
 208 1627 l 1
 463 1382 l 1
 718 1627 l 1
 872 1526 l 1
 598 1150 l 1
 327 1149 l 1
EndSplineSet
EndChar

StartChar: emdash
Encoding: 343 8212 129
Width: 1306
Flags: HW
LayerCount: 2
Fore
SplineSet
1238 836 m 1
 1238 537 l 1
 68 537 l 1
 68 836 l 1
 1238 836 l 1
EndSplineSet
EndChar

StartChar: AE
Encoding: 132 198 130
Width: 2151
Flags: HW
LayerCount: 2
Fore
SplineSet
1808 969 m 1
 1730 1269 l 1
 1517 1269 l 1
 1517 986 l 1
 1722 986 l 1
 1722 634 l 1
 1517 634 l 1
 1517 348 l 1
 1736 348 l 1
 1757 465 1812 685 1812 685 c 1
 2085 685 l 1
 2085 -2 l 1
 856 -2 l 1
 855 374 l 1
 975 374 l 1
 996 483 984 538 939 538 c 2
 664 538 l 2
 610 538 604 375 647 375 c 2
 731 375 l 1
 731 -1 l 1
 50 -2 l 1
 50 353 l 1
 207 353 260 456 307 566 c 0
 410 807 533 1039 647 1274 c 1
 435 1274 l 1
 506 1623 l 1
 2076 1623 l 1
 2076 970 l 1
 1808 969 l 1
967 769 m 1
 967 1290 l 1
 728 769 l 1
 967 769 l 1
EndSplineSet
EndChar

StartChar: ordfeminine
Encoding: 104 170 131
Width: 991
Flags: HW
LayerCount: 2
Fore
SplineSet
326 807 m 0
 175 807 39 896 39 1046 c 1
 38 1044 l 1
 38 1209 195 1282 360 1282 c 0
 432 1282 495 1273 549 1254 c 1
 549 1287 l 2
 549 1368 497 1409 393 1409 c 0
 323 1409 235 1339 235 1339 c 1
 105 1339 l 1
 105 1571 l 1
 155 1584 l 1
 223 1603 371 1624 463 1624 c 0
 670 1624 883 1582 883 1374 c 2
 883 1046 l 1
 939 1046 l 1
 939 821 l 1
 591 821 l 1
 554 909 l 1
 511 854 419 807 326 807 c 0
476 1140 m 0
 434 1140 400 1100 400 1058 c 1
 398 1059 l 1
 398 1015 425 983 468 983 c 0
 503 983 549 994 549 1016 c 2
 549 1125 l 1
 531 1132 503 1140 476 1140 c 0
EndSplineSet
EndChar

StartChar: Lslash
Encoding: 247 321 132
Width: 1398
Flags: HW
LayerCount: 2
Fore
SplineSet
901 1160 m 1
 1000 981 l 1
 777 852 l 1
 777 359 l 1
 968 359 l 1
 1055 709 l 1
 1341 709 l 1
 1341 0 l 1
 68 0 l 1
 67 359 l 1
 210 359 l 1
 210 523 l 1
 132 478 l 1
 32 656 l 1
 210 759 l 1
 210 1270 l 1
 63 1270 l 1
 63 1622 l 1
 931 1622 l 1
 931 1270 l 1
 777 1270 l 1
 777 1088 l 1
 901 1160 l 1
EndSplineSet
EndChar

StartChar: Oslash
Encoding: 150 216 133
Width: 1715
Flags: HW
LayerCount: 2
Fore
SplineSet
1676 808 m 0
 1676 326 1337 -29 856 -29 c 0
 821 -29 752 -23 752 -23 c 1
 714 -194 l 1
 552 -155 l 1
 592 10 l 1
 283 112 37 408 37 807 c 0
 37 1315 354 1653 857 1653 c 0
 889 1653 968 1646 968 1646 c 1
 1005 1804 l 1
 1158 1774 l 1
 1122 1616 l 1
 1451 1519 1676 1230 1676 808 c 0
859 1292 m 1
 663 1292 647 1056 647 854 c 0
 647 701 642 540 690 436 c 1
 888 1292 l 1
 875 1293 865 1294 858 1294 c 1
 859 1292 l 1
856 311 m 1
 1059 311 1066 572 1066 782 c 0
 1066 929 1070 1079 1024 1178 c 1
 830 313 l 1
 835 312 844 312 856 312 c 1
 856 311 l 1
EndSplineSet
EndChar

StartChar: OE
Encoding: 261 338 134
Width: 2260
Flags: HW
LayerCount: 2
Fore
SplineSet
35 792 m 0
 35 1290 371 1610 870 1610 c 2
 2185 1610 l 1
 2185 957 l 1
 1917 956 l 1
 1841 1258 l 1
 1628 1258 l 1
 1628 988 l 1
 1833 988 l 1
 1833 636 l 1
 1628 636 l 1
 1628 350 l 1
 1847 350 l 1
 1868 467 1923 687 1923 687 c 1
 2196 687 l 1
 2196 0 l 1
 1755 0 1315 0 874 0 c 0
 377 0 35 303 35 792 c 0
864 1257 m 2
 655 1257 638 1032 651 817 c 0
 664 597 636 350 875 350 c 2
 1074 350 l 1
 1074 1257 l 1
 864 1257 l 2
EndSplineSet
EndChar

StartChar: ordmasculine
Encoding: 120 186 135
Width: 993
Flags: HW
LayerCount: 2
Fore
SplineSet
945 688 m 0
 945 426 762 271 498 271 c 0
 234 271 52 426 52 688 c 0
 52 952 232 1091 499 1091 c 0
 768 1091 945 952 945 688 c 0
498 859 m 0
 408 859 394 775 394 685 c 0
 394 562 428 500 495 500 c 0
 563 500 597 562 597 685 c 0
 597 775 589 859 498 859 c 0
EndSplineSet
EndChar

StartChar: ae
Encoding: 164 230 136
Width: 1921
Flags: HW
LayerCount: 2
Fore
SplineSet
44 299 m 1
 41 292 l 1
 41 343 54 390 79 432 c 0
 104 474 137 508 178 534 c 0
 219 560 265 580 316 594 c 0
 367 608 420 615 475 615 c 0
 572 615 657 602 730 577 c 1
 730 622 l 2
 730 733 660 788 519 788 c 0
 424 788 352 756 304 693 c 1
 129 693 l 1
 129 1007 l 1
 196 1024 l 2
 241 1036 304 1048 385 1060 c 0
 466 1072 542 1078 613 1078 c 0
 658 1078 702 1074 745 1065 c 0
 788 1056 822 1046 848 1035 c 0
 874 1024 899 1012 922 998 c 0
 945 984 960 974 967 969 c 0
 974 964 979 960 982 957 c 1
 996 970 l 2
 1005 979 1019 989 1039 1001 c 0
 1059 1013 1082 1025 1108 1037 c 0
 1134 1049 1166 1059 1205 1068 c 0
 1244 1077 1285 1081 1327 1081 c 0
 1442 1081 1542 1057 1627 1008 c 0
 1712 959 1775 895 1817 815 c 0
 1859 735 1880 645 1880 545 c 0
 1880 522 1878 496 1875 466 c 1
 1869 452 1865 444 1862 442 c 0
 1859 440 1851 439 1838 439 c 2
 1236 439 l 1
 1236 377 1252 324 1284 280 c 0
 1316 236 1359 214 1414 214 c 0
 1462 214 1497 226 1519 249 c 0
 1541 272 1553 308 1554 357 c 1
 1861 357 l 1
 1861 119 l 1
 1773 66 1687 29 1602 7 c 0
 1517 -15 1421 -26 1314 -26 c 0
 1188 -26 1077 17 982 104 c 1
 913 53 837 18 754 -1 c 0
 671 -20 564 -29 433 -28 c 0
 363 -27 299 -14 241 11 c 0
 183 36 136 74 99 124 c 0
 62 174 44 232 44 299 c 1
531 310 m 1
 532 308 l 1
 532 278 541 254 558 235 c 0
 575 216 598 207 627 207 c 0
 648 207 668 211 687 220 c 0
 706 229 718 236 723 241 c 0
 728 246 732 250 735 253 c 1
 735 400 l 1
 721 405 l 2
 712 408 699 412 683 416 c 0
 667 420 652 422 637 422 c 0
 608 422 583 411 562 388 c 0
 541 365 531 339 531 310 c 1
1236 611 m 1
 1451 609 l 1
 1452 632 1452 652 1450 669 c 0
 1448 686 1444 706 1438 728 c 0
 1432 750 1421 767 1405 779 c 0
 1389 791 1369 797 1344 797 c 0
 1308 797 1281 781 1263 749 c 0
 1245 717 1236 681 1236 640 c 2
 1236 611 l 1
EndSplineSet
EndChar

StartChar: dotlessi
Encoding: 231 305 137
Width: 753
Flags: HW
LayerCount: 2
Fore
SplineSet
626 299 m 1
 710 299 l 1
 710 0 l 1
 63 0 l 1
 63 299 l 1
 145 299 l 1
 145 747 l 1
 56 747 l 1
 56 1072 l 1
 626 1072 l 1
 626 299 l 1
EndSplineSet
EndChar

StartChar: lslash
Encoding: 248 322 138
Width: 892
Flags: HW
LayerCount: 2
Fore
SplineSet
772 1153 m 1
 871 974 l 1
 691 870 l 1
 691 305 l 1
 769 305 l 1
 769 0 l 1
 122 0 l 1
 122 305 l 1
 196 305 l 1
 196 584 l 1
 120 540 l 1
 20 718 l 1
 196 820 l 1
 196 1317 l 1
 112 1317 l 1
 112 1630 l 1
 691 1630 l 1
 691 1106 l 1
 772 1153 l 1
EndSplineSet
EndChar

StartChar: oslash
Encoding: 182 248 139
Width: 1273
Flags: HW
LayerCount: 2
Fore
SplineSet
761 673 m 1
 562 320 l 1
 582 303 607 294 636 294 c 0
 727 294 773 378 773 545 c 0
 773 579 772 608 769 632 c 0
 767 646 765 659 761 673 c 1
38 547 m 1
 36 547 l 1
 36 720 90 854 197 949 c 0
 304 1044 451 1091 638 1091 c 0
 722 1091 797 1082 865 1063 c 1
 938 1192 l 1
 1025 1142 l 1
 960 1027 l 1
 1004 1006 1044 980 1079 949 c 0
 1186 854 1240 720 1240 547 c 0
 1240 430 1215 329 1164 243 c 0
 1113 157 1042 92 952 48 c 0
 862 4 758 -18 639 -18 c 0
 549 -18 467 -5 394 20 c 1
 324 -104 l 1
 237 -54 l 1
 302 61 l 1
 224 104 160 165 114 243 c 0
 63 329 38 430 38 547 c 1
501 545 m 1
 499 545 l 1
 499 500 502 462 509 429 c 1
 699 768 l 1
 682 777 661 781 637 781 c 0
 608 781 584 775 565 762 c 0
 546 749 532 730 523 705 c 0
 514 680 508 656 505 632 c 0
 502 608 501 579 501 545 c 1
EndSplineSet
EndChar

StartChar: oe
Encoding: 262 339 140
Width: 1915
Flags: HW
LayerCount: 2
Fore
SplineSet
990 112 m 1
 929 30 787 -26 640 -26 c 0
 279 -26 39 170 39 531 c 0
 39 887 279 1075 641 1075 c 0
 796 1075 918 1023 996 951 c 1
 1069 1024 1171 1077 1323 1077 c 0
 1656 1077 1876 869 1876 541 c 0
 1876 481 1834 434 1834 434 c 1
 1232 434 l 1
 1232 318 1296 209 1410 209 c 0
 1507 209 1548 256 1550 352 c 1
 1857 352 l 1
 1857 114 l 1
 1694 17 1550 -31 1308 -31 c 0
 1165 -31 1052 34 990 112 c 1
639 723 m 0
 526 723 503 641 503 529 c 0
 503 388 547 317 638 317 c 0
 729 317 775 387 775 528 c 0
 775 640 752 723 639 723 c 0
1339 795 m 0
 1264 795 1231 714 1231 638 c 2
 1231 607 l 1
 1446 607 l 1
 1450 702 1434 795 1339 795 c 0
EndSplineSet
EndChar

StartChar: germandbls
Encoding: 157 223 141
Width: 1692
Flags: HW
LayerCount: 2
Fore
SplineSet
888 1274 m 0
 799 1274 746 1224 746 1131 c 2
 747 350 l 1
 747 350 881 349 898 350 c 1
 898 0 l 1
 47 0 l 1
 47 369 l 1
 219 369 l 1
 219 1092 l 2
 219 1488 463 1623 859 1623 c 1
 855 1619 l 1
 1162 1619 1487 1529 1487 1235 c 0
 1487 1078 1374 960 1261 897 c 1
 1466 831 1662 668 1662 426 c 0
 1662 110 1362 -21 1036 -21 c 1
 1035 346 l 1
 1132 401 1180 462 1180 530 c 0
 1180 686 1004 748 822 748 c 1
 819 899 l 1
 931 899 1034 1013 1034 1122 c 0
 1034 1215 984 1274 888 1274 c 0
EndSplineSet
EndChar

StartChar: onesuperior
Encoding: 119 185 142
Width: 535
Flags: HW
LayerCount: 2
Fore
SplineSet
85 286 m 1
 85 476 l 1
 138 476 l 1
 138 843 l 1
 42 842 l 1
 42 993 l 1
 429 1091 l 1
 429 476 l 1
 489 476 l 1
 489 286 l 1
 85 286 l 1
EndSplineSet
EndChar

StartChar: logicalnot
Encoding: 106 172 143
Width: 1137
Flags: HW
LayerCount: 2
Fore
SplineSet
56 1092 m 1
 1067 1092 l 1
 1067 542 l 1
 836 542 l 1
 836 761 l 1
 57 761 l 1
 56 1092 l 1
EndSplineSet
EndChar

StartChar: dotlessj
Encoding: 358 567 144
Width: 692
Flags: HW
LayerCount: 2
Fore
SplineSet
169 -9 m 1
 167 -65 97 -72 44 -72 c 2
 32 -72 l 1
 32 -398 l 1
 449 -398 656 -269 656 129 c 2
 656 1072 l 1
 39 1072 l 1
 39 761 l 1
 169 761 l 1
 169 -9 l 1
EndSplineSet
EndChar

StartChar: Eth
Encoding: 142 208 146
AltUni2: 000110.ffffffff.0
Width: 1746
Flags: HW
LayerCount: 2
Fore
SplineSet
1710 816 m 0
 1710 317 1370 0 863 0 c 2
 61 0 l 1
 61 351 l 1
 224 351 l 1
 224 713 l 1
 94 713 l 1
 94 922 l 1
 224 922 l 1
 224 1270 l 1
 57 1270 l 1
 57 1622 l 1
 887 1622 l 2
 1429 1622 1710 1352 1710 816 c 0
1115 815 m 0
 1115 1055 1061 1269 820 1269 c 2
 773 1269 l 1
 773 921 l 1
 859 921 l 1
 859 712 l 1
 774 712 l 1
 774 350 l 1
 808 350 l 1
 806 347 l 1
 1046 347 1115 576 1115 815 c 0
EndSplineSet
EndChar

StartChar: onehalf
Encoding: 123 189 147
Width: 1741
Flags: HW
LayerCount: 2
Fore
SplineSet
78 818 m 1
 77 1008 l 1
 130 1008 l 1
 130 1375 l 1
 34 1374 l 1
 34 1525 l 1
 421 1623 l 1
 425 1008 l 1
 481 1008 l 1
 481 818 l 1
 78 818 l 1
342 0 m 1
 833 1623 l 1
 1197 1623 l 1
 695 0 l 1
 342 0 l 1
1466 194 m 1
 1540 196 1597 211 1597 283 c 1
 1701 283 l 1
 1701 -1 l 1
 1013 -1 l 1
 1009 178 l 1
 1149 234 1339 331 1339 513 c 0
 1339 564 1306 617 1257 617 c 0
 1206 617 1176 582 1176 532 c 0
 1176 504 1189 478 1214 455 c 1
 1077 350 l 1
 1016 405 988 478 988 569 c 0
 988 920 1649 920 1649 558 c 0
 1649 376 1524 311 1369 194 c 1
 1466 194 l 1
EndSplineSet
Ligature2: "'dlig' Discretionary Ligatures in Latin lookup 4-1" one slash two
EndChar

StartChar: plusminus
Encoding: 111 177 148
Width: 814
Flags: HW
LayerCount: 2
Fore
SplineSet
730 223 m 1
 730 -1 l 1
 83 -1 l 1
 83 223 l 1
 730 223 l 1
53 762 m 1
 285 762 l 1
 285 1031 l 1
 540 1031 l 1
 540 762 l 1
 765 762 l 1
 765 517 l 1
 540 517 l 1
 540 278 l 1
 285 278 l 1
 285 517 l 1
 53 517 l 1
 53 762 l 1
EndSplineSet
EndChar

StartChar: Thorn
Encoding: 156 222 149
Width: 1612
Flags: HW
LayerCount: 2
Fore
SplineSet
1577 1066 m 0
 1577 688 1299 559 918 559 c 0
 871 559 821 562 768 569 c 1
 768 363 l 1
 914 363 l 1
 914 0 l 1
 53 0 l 1
 53 363 l 1
 210 362 l 1
 210 1487 l 1
 59 1487 l 1
 59 1842 l 1
 769 1842 l 1
 768 1542 l 1
 1199 1542 1577 1497 1577 1066 c 0
1057 1055 m 0
 1057 1157 974 1207 873 1207 c 2
 769 1207 l 1
 769 894 l 1
 830 894 l 2
 961 894 1057 931 1057 1055 c 0
EndSplineSet
EndChar

StartChar: onequarter
Encoding: 122 188 150
Width: 1674
Flags: HW
HStem: 1 169<1128 1236 1504 1609> 247 151<1102 1236 1504 1638> 1604 20G<885.288 1206>
VStem: 1236 268<170 247 398 596>
DStem2: 347 0 660 0 0.318678 0.947863<99.7462 1713.01> 923 405 1102 398 0.590336 0.807157<100.02 338.942>
LayerCount: 2
Fore
SplineSet
410.208 1624 m 1
 424 1624 l 1
 424 1008 l 1
 526 1008 l 1
 526 818 l 1
 24 818 l 1
 24 1008 l 1
 131 1008 l 1
 131 1405 l 1
 24 1405 l 1
 24 1575 l 1
 410.208 1624 l 1
347 0 m 1
 892 1624 l 1
 1206 1624 l 1
 660 0 l 1
 347 0 l 1
1504 170 m 1
 1609 170 l 1
 1609 1 l 1
 1128 1 l 1
 1128 170 l 1
 1236 170 l 1
 1236 247 l 1
 923 247 l 1
 923 405 l 1
 1247 848 l 1
 1504 848 l 1
 1504 398 l 1
 1638 398 l 1
 1638 247 l 1
 1504 247 l 1
 1504 170 l 1
1236 398 m 1
 1236 596 l 1
 1102 398 l 1
 1236 398 l 1
EndSplineSet
LCarets2: 2 0 0 
Ligature2: "'dlig' Discretionary Ligatures in Latin lookup 4-1" one slash four
EndChar

StartChar: divide
Encoding: 181 247 151
Width: 846
Flags: HW
LayerCount: 2
Fore
SplineSet
39 761 m 1
 39 538 l 1
 813 538 l 1
 813 761 l 1
 39 761 l 1
442 -18 m 1
 442 -19 l 1
 377 -19 323 0 280 37 c 0
 237 74 215 124 215 187 c 0
 215 248 236 297 278 333 c 0
 320 369 375 387 442 387 c 0
 511 387 568 369 612 333 c 0
 656 297 678 248 678 187 c 0
 678 124 655 74 610 37 c 0
 565 0 509 -18 442 -18 c 1
442 885 m 1
 442 884 l 1
 377 884 323 903 280 940 c 0
 237 977 215 1027 215 1090 c 0
 215 1151 236 1200 278 1236 c 0
 320 1272 375 1290 442 1290 c 0
 511 1290 568 1272 612 1236 c 0
 656 1200 678 1151 678 1090 c 0
 678 1027 655 977 610 940 c 0
 565 903 509 885 442 885 c 1
EndSplineSet
EndChar

StartChar: brokenbar
Encoding: 100 166 152
Width: 544
Flags: HW
LayerCount: 2
Fore
SplineSet
469 721 m 1
 469 0 l 1
 74 0 l 1
 74 721 l 1
 469 721 l 1
469 1623 m 1
 469 902 l 1
 74 902 l 1
 74 1623 l 1
 469 1623 l 1
EndSplineSet
EndChar

StartChar: degree
Encoding: 110 176 153
Width: 808
Flags: HW
LayerCount: 2
Fore
SplineSet
760 1300 m 0
 760 1091 610 949 396 949 c 0
 186 949 42 1089 42 1296 c 0
 42 1501 186 1634 395 1634 c 0
 607 1634 760 1506 760 1300 c 0
395 1496 m 0
 276 1496 195 1411 195 1297 c 0
 195 1182 278 1092 396 1092 c 0
 518 1092 603 1180 603 1297 c 0
 603 1413 516 1496 395 1496 c 0
EndSplineSet
EndChar

StartChar: thorn
Encoding: 188 254 154
Width: 1387
Flags: HW
LayerCount: 2
Fore
SplineSet
29 -398 m 1
 30 -96 l 1
 114 -96 l 1
 114 1139 l 1
 40 1139 l 1
 40 1445 l 1
 604 1445 l 1
 604 954 l 1
 614 954 l 1
 657 999 701 1031 746 1051 c 0
 791 1071 844 1081 905 1081 c 0
 976 1081 1040 1066 1098 1036 c 0
 1156 1006 1204 966 1241 915 c 0
 1278 864 1307 807 1327 743 c 0
 1347 679 1357 611 1357 540 c 0
 1357 470 1347 403 1328 338 c 0
 1309 273 1281 215 1245 163 c 0
 1209 111 1161 69 1102 38 c 0
 1043 7 977 -9 904 -9 c 0
 835 -9 773 4 718 29 c 0
 663 54 621 84 592 119 c 1
 592 -96 l 1
 703 -96 l 1
 703 -397 l 1
 29 -398 l 1
595 404 m 1
 592 401 l 1
 593 394 597 385 603 375 c 0
 609 365 616 355 625 344 c 0
 634 333 647 324 664 317 c 0
 681 310 700 306 721 306 c 0
 753 306 780 313 803 327 c 0
 826 341 843 360 855 384 c 0
 867 408 875 433 880 459 c 0
 885 485 888 513 888 542 c 0
 888 671 834 736 725 736 c 0
 704 736 686 733 670 726 c 0
 654 719 641 712 632 704 c 0
 623 696 615 686 608 675 c 0
 601 664 597 657 596 653 c 0
 595 649 594 646 593 643 c 1
 593 415 l 1
 595 404 l 1
EndSplineSet
EndChar

StartChar: threequarters
Encoding: 124 190 155
Width: 1778
Flags: W
HStem: -1 167<1297 1371 1639 1711> 243 151<1260 1371 1640 1743> 822 171<111.169 381.299> 1058 20G<51 86.5> 1358 265<44 176.138> 1440 183<171.543 365>
VStem: 44 113<1358 1428.6> 398 311<1013.96 1153.19> 489 353<0 353> 980 364<1257 1621> 1371 269<166 243 394 532>
DStem2: 489 0 842 0 0.295825 0.955242<104.426 1693.7>
LayerCount: 2
Fore
SplineSet
1371 394 m 1xf260
 1371 532 l 1
 1260 395 l 1
 1371 394 l 1xf260
1639 166 m 1
 1711 166 l 1
 1711 -1 l 1
 1297 -1 l 1
 1297 166 l 1
 1371 166 l 1
 1371 243 l 1
 1058 243 l 1
 1058 401 l 1
 1382 785 l 1
 1640 784 l 1
 1640 393 l 1
 1743 394 l 1
 1743 243 l 1
 1639 243 l 1
 1639 166 l 1
489 0 m 1xf2e0
 980 1621 l 1
 1344 1621 l 1
 842 0 l 1
 489 0 l 1xf2e0
329 822 m 0
 208 822 51 878 51 878 c 1
 51 1078 l 1
 122 1022 193 993 267 993 c 0
 330 993 398 1017 398 1080 c 0
 398 1152 325 1178 252 1178 c 0
 233 1178 191 1166 177 1166 c 0
 170 1166 165 1171 165 1171 c 1
 165 1264 l 1
 365 1434 l 1
 365 1440 l 1
 237 1440 l 2xf760
 175 1440 157 1358 157 1358 c 1
 44 1358 l 1
 44 1623 l 1xfb60
 670 1623 l 1
 670 1469 l 2
 670 1468 614 1422 503 1331 c 1
 611 1322 709 1224 709 1110 c 0xf760
 709 909 540 822 329 822 c 0
EndSplineSet
Ligature2: "'dlig' Discretionary Ligatures in Latin lookup 4-1" three slash four
EndChar

StartChar: twosuperior
Encoding: 112 178 156
Width: 805
Flags: HW
LayerCount: 2
Fore
SplineSet
524 481 m 1
 598 483 655 498 655 570 c 1
 759 570 l 1
 759 286 l 1
 71 286 l 1
 67 465 l 1
 207 521 397 618 397 800 c 0
 397 851 364 904 315 904 c 0
 264 904 234 869 234 819 c 0
 234 791 247 765 272 742 c 1
 135 637 l 1
 74 692 46 765 46 856 c 0
 46 1207 707 1207 707 845 c 0
 707 663 582 598 427 481 c 1
 524 481 l 1
EndSplineSet
EndChar

StartChar: registered
Encoding: 108 174 157
Width: 1770
Flags: HW
LayerCount: 2
Fore
SplineSet
884 -18 m 0
 412 -18 44 322 44 792 c 0
 44 1262 413 1600 884 1600 c 0
 1356 1600 1724 1262 1724 791 c 0
 1724 320 1356 -18 884 -18 c 0
1549 788 m 0
 1549 1162 1258 1446 883 1446 c 2
 882 1446 l 2
 504 1446 216 1165 216 788 c 0
 216 411 506 130 883 130 c 0
 1258 130 1549 414 1549 788 c 0
994 611 m 2
 994 699 976 747 889 747 c 2
 835 747 l 1
 835 566 l 1
 902 566 l 1
 902 361 l 1
 903 360 l 1
 805 360 655 360 453 359 c 1
 453 562 l 1
 538 562 l 1
 538 1058 l 1
 452 1058 l 1
 452 1262 l 1
 1016 1262 l 2
 1200 1262 1312 1193 1312 1011 c 0
 1312 890 1223 828 1112 809 c 1
 1196 789 1266 757 1266 670 c 2
 1266 618 l 2
 1266 564 1294 559 1358 559 c 1
 1358 360 l 1
 1212 360 l 2
 1086 360 994 376 994 502 c 2
 994 611 l 2
1006 970 m 0
 1006 1031 963 1068 900 1068 c 2
 832 1068 l 1
 832 872 l 1
 866 872 l 1
 867 873 l 1
 960 873 1006 905 1006 970 c 0
EndSplineSet
EndChar

StartChar: eth
Encoding: 174 240 158
Width: 1320
Flags: HW
LayerCount: 2
Fore
SplineSet
1203 1585 m 1
 1268 1426 l 1
 1111 1363 l 1
 1212 1214 1269 1009 1282 748 c 0
 1283 735 1283 715 1283 688 c 0
 1283 610 1276 537 1261 468 c 0
 1246 399 1222 335 1189 275 c 0
 1156 215 1115 163 1066 120 c 0
 1017 77 957 43 885 18 c 0
 813 -7 733 -19 644 -19 c 0
 549 -19 462 -3 383 29 c 0
 304 61 240 104 190 157 c 0
 140 210 102 270 75 336 c 0
 48 402 35 470 35 539 c 0
 35 590 43 639 58 686 c 0
 73 733 97 778 129 820 c 0
 161 862 200 898 246 929 c 0
 292 960 349 984 416 1002 c 0
 483 1020 556 1029 635 1029 c 2
 668 1029 l 1
 652 1090 636 1137 620 1169 c 1
 369 1068 l 1
 306 1225 l 1
 486 1297 l 1
 445 1313 396 1321 340 1321 c 0
 288 1321 246 1317 215 1310 c 1
 215 1621 l 1
 318 1643 416 1654 509 1654 c 0
 706 1654 866 1602 989 1499 c 1
 1203 1585 l 1
556 566 m 0
 556 413 593 336 667 336 c 0
 687 336 704 345 718 362 c 0
 732 379 742 401 748 428 c 0
 754 455 758 479 760 500 c 0
 762 521 763 540 763 558 c 0
 763 703 730 775 665 775 c 0
 592 775 556 705 556 566 c 0
EndSplineSet
EndChar

StartChar: multiply
Encoding: 149 215 159
Width: 810
Flags: HW
LayerCount: 2
Fore
SplineSet
405 467 m 1
 213 274 l 1
 40 447 l 1
 232 640 l 1
 28 844 l 1
 208 1024 l 1
 405 820 l 1
 602 1024 l 1
 782 844 l 1
 578 640 l 1
 770 447 l 1
 597 274 l 1
 405 467 l 1
EndSplineSet
EndChar

StartChar: threesuperior
Encoding: 113 179 160
Width: 769
Flags: HW
LayerCount: 2
Fore
SplineSet
343 270 m 0
 222 270 65 326 65 326 c 1
 65 526 l 1
 136 470 207 441 281 441 c 0
 344 441 412 465 412 528 c 0
 412 600 339 626 266 626 c 0
 247 626 205 614 191 614 c 0
 187 614 179 619 179 619 c 1
 179 712 l 1
 379 882 l 1
 379 888 l 1
 251 888 l 2
 189 888 171 806 171 806 c 1
 58 806 l 1
 58 1071 l 1
 684 1071 l 1
 684 917 l 2
 684 916 628 870 517 779 c 1
 625 770 723 672 723 558 c 0
 723 357 554 270 343 270 c 0
EndSplineSet
EndChar

StartChar: copyright
Encoding: 103 169 161
Width: 1770
Flags: HW
LayerCount: 2
Fore
SplineSet
884 -18 m 0
 412 -18 44 322 44 792 c 0
 44 1262 413 1600 884 1600 c 0
 1356 1600 1724 1262 1724 791 c 0
 1724 320 1356 -18 884 -18 c 0
1549 788 m 0
 1549 1162 1258 1446 883 1446 c 2
 882 1446 l 2
 504 1446 216 1165 216 788 c 0
 216 411 506 130 883 130 c 0
 1258 130 1549 414 1549 788 c 0
918 485 m 0
 1019 485 1060 552 1063 656 c 1
 1254 656 l 1
 1254 396 l 1
 1236 374 l 1
 1151 303 1008 245 853 245 c 0
 535 245 366 454 366 774 c 0
 366 1069 503 1315 799 1315 c 0
 907 1315 983 1294 1027 1251 c 1
 1049 1296 l 1
 1246 1296 l 1
 1246 895 l 1
 1057 895 l 1
 1060 996 1011 1085 910 1085 c 0
 775 1085 759 944 759 808 c 2
 759 731 l 2
 759 602 788 485 918 485 c 0
EndSplineSet
EndChar

StartChar: foursuperior
Encoding: 359 -1 215
Width: 820
Flags: HW
LayerCount: 2
Fore
SplineSet
635 455 m 1
 707 455 l 1
 707 286 l 1
 293 286 l 1
 293 455 l 1
 367 455 l 1
 367 532 l 1
 54 532 l 1
 54 690 l 1
 378 1074 l 1
 636 1073 l 1
 636 682 l 1
 769 683 l 1
 769 532 l 1
 635 532 l 1
 635 455 l 1
367 683 m 1
 367 821 l 1
 256 684 l 1
 367 683 l 1
EndSplineSet
EndChar

StartChar: uni00AD
Encoding: 107 173 216
Width: 778
Flags: HW
LayerCount: 2
Fore
SplineSet
713 836 m 1
 713 537 l 1
 66 537 l 1
 66 836 l 1
 713 836 l 1
EndSplineSet
EndChar

StartChar: hbar
Encoding: 221 295 219
Width: 1436
Flags: HW
LayerCount: 2
Fore
SplineSet
950 1089 m 0
 1185 1089 1308 944 1308 702 c 2
 1308 305 l 1
 1394 305 l 1
 1394 0 l 1
 818 0 l 1
 818 619 l 1
 817 702 789 744 734 744 c 0
 667 744 633 705 633 626 c 2
 633 305 l 1
 713 305 l 1
 713 0 l 1
 60 0 l 1
 61 305 l 1
 140 305 l 1
 140 1133 l 1
 56 1133 l 1
 56 1262 l 1
 140 1262 l 1
 140 1332 l 1
 56 1332 l 1
 56 1640 l 1
 629 1640 l 1
 629 1262 l 1
 804 1262 l 1
 804 1133 l 1
 629 1133 l 1
 629 916 l 1
 709 1005 782 1089 950 1089 c 0
EndSplineSet
EndChar

StartChar: ij
Encoding: 233 307 224
Width: 1490
Flags: HW
LayerCount: 2
Fore
SplineSet
1420 1072 m 1
 58 1075 l 1
 58 764 l 1
 147 764 l 1
 147 308 l 1
 65 308 l 1
 65 3 l 1
 712 3 l 1
 712 308 l 1
 628 308 l 1
 628 763 l 1
 923 763 l 1
 923 -6 l 2
 923 -31 911 -48 887 -58 c 0
 863 -68 839 -72 815 -69 c 1
 817 -395 l 1
 932 -395 1029 -384 1107 -363 c 0
 1185 -342 1247 -309 1293 -264 c 0
 1339 -219 1372 -165 1391 -102 c 0
 1410 -39 1420 38 1420 129 c 2
 1420 1072 l 1
347 1138 m 1
 345 1137 l 1
 266 1137 200 1160 147 1205 c 0
 94 1250 68 1311 68 1388 c 0
 68 1463 94 1523 146 1567 c 0
 198 1611 265 1633 346 1633 c 0
 431 1633 500 1611 553 1567 c 0
 606 1523 633 1463 633 1388 c 0
 633 1311 606 1250 551 1205 c 0
 496 1160 428 1138 347 1138 c 1
1136 1137 m 1
 1134 1136 l 1
 1055 1136 989 1159 936 1204 c 0
 883 1249 857 1310 857 1387 c 0
 857 1462 883 1522 935 1566 c 0
 987 1610 1054 1632 1135 1632 c 0
 1220 1632 1289 1610 1342 1566 c 0
 1395 1522 1422 1462 1422 1387 c 0
 1422 1310 1395 1249 1340 1204 c 0
 1285 1159 1217 1137 1136 1137 c 1
EndSplineSet
Ligature2: "'dlig' Discretionary Ligatures in Latin lookup 4-1" i j
EndChar

StartChar: Euro
Encoding: 352 8364 240
Width: 1499
Flags: HW
LayerCount: 2
Fore
SplineSet
762 -21 m 0
 398 -21 214 223 141 517 c 1
 21 517 l 1
 21 741 l 1
 109 741 l 1
 108 755 108 776 108 804 c 0
 108 832 108 853 109 867 c 1
 21 867 l 1
 21 1091 l 1
 140 1091 l 1
 212 1389 393 1649 761 1649 c 0
 915 1649 1039 1627 1120 1549 c 1
 1154 1623 l 1
 1465 1623 l 1
 1466 988 l 1
 1168 988 l 1
 1173 1151 1097 1287 934 1287 c 0
 843 1287 782 1221 751 1088 c 1
 934 1088 l 1
 934 864 l 1
 727 864 l 1
 727 822 727 780 727 738 c 1
 934 738 l 1
 934 514 l 1
 754 514 l 1
 785 399 845 341 934 341 c 0
 1097 341 1173 477 1168 640 c 1
 1466 640 l 1
 1465 0 l 1
 1154 0 l 1
 1120 79 l 1
 1039 1 916 -21 762 -21 c 0
EndSplineSet
EndChar

StartChar: uniFB00
Encoding: 360 64256 241
Width: 1763
Flags: W
HStem: 0 305<46 194 681 857 922 1035 1522 1698> 768 304<28 194 681 1035 1522 1728> 1212 311<761.599 886 1602.6 1727> 1225 345<463.239 877.05 1304.24 1718.05>
VStem: 194 487<305 768 1072 1215.86> 1035 487<305 768 1072 1215.86>
LayerCount: 2
Back
SplineSet
516 1608 m 4
 617 1608 826 1562 826 1562 c 5
 826 1251 l 5
 787 1260 755 1264 730 1264 c 4
 628 1264 612 1191 619 1072 c 5
 1014 1072 l 5
 1014 1074 1013 1119 1012 1207 c 5
 1010 1203 l 5
 1010 1472 1137 1606 1390 1606 c 4
 1491 1606 1700 1560 1700 1560 c 5
 1700 1249 l 5
 1661 1258 1629 1262 1604 1262 c 4
 1502 1262 1486 1189 1493 1070 c 5
 1672 1070 l 5
 1672 759 l 5
 1500 759 l 5
 1500 305 l 5
 1610 305 l 5
 1610 0 l 5
 930 0 l 5
 930 305 l 5
 1014 305 l 5
 1014 759 l 5
 625 759 l 5
 625 305 l 5
 735 305 l 5
 735 0 l 5
 55 0 l 5
 55 305 l 5
 139 305 l 5
 139 759 l 5
 55 759 l 5
 55 1070 l 5
 138 1070 l 5
 138 1072 136 1117 136 1205 c 4
 136 1474 263 1608 516 1608 c 4
EndSplineSet
Fore
SplineSet
886 1523 m 1xec
 886 1212 l 1xec
 835 1221 794 1225 760 1225 c 0
 690 1225 672 1180 672 1107 c 0
 672 1096 672 1084 673 1072 c 1
 1035 1072 l 1
 1035 1167 l 2
 1035 1436 1168.48 1570 1440 1570 c 4xdc
 1534.53 1570 1727 1523 1727 1523 c 1
 1727 1212 l 1xec
 1676 1221 1635 1225 1601 1225 c 0
 1531 1225 1513 1180 1513 1107 c 0
 1513 1096 1513 1084 1514 1072 c 1
 1728 1072 l 1
 1728 768 l 1
 1522 768 l 1
 1522 305 l 1
 1698 305 l 1
 1698 0 l 1
 922 0 l 1
 922 305 l 1
 1035 305 l 1
 1035 768 l 1
 681 768 l 1
 681 305 l 1
 857 305 l 1
 857 0 l 1
 46 0 l 1
 46 305 l 1
 194 305 l 1
 194 768 l 1
 28 768 l 1
 28 1072 l 1
 194 1072 l 1
 194 1167 l 2
 194 1436 327.479 1570 599 1570 c 0xdc
 693.531 1570 886 1523 886 1523 c 1xec
EndSplineSet
LCarets2: 1 0 
Ligature2: "'liga' Standard Ligatures in Latin lookup 0-1" f f
EndChar

StartChar: fi
Encoding: 355 64257 242
Width: 1624
Flags: W
HStem: 0 305<-8 140 627 800 895 1000 1487 1590> 768 304<-26 140 627 1000> 1135 495<1037.9 1367.23> 1225 345<442.479 824.956>
VStem: 140 487<305 768 1072 1215.86> 923 564<1247.4 1525.76> 1000 487<305 768>
LayerCount: 2
Back
SplineSet
832 1523 m 5
 832 1212 l 5
 781 1221 740 1225 706 1225 c 4
 636 1225 618 1180 618 1107 c 4
 618 1096 618 1084 619 1072 c 5
 833 1072 l 5
 833 779 l 5
 627 779 l 5
 627 305 l 5
 803 305 l 5
 803 0 l 5
 -8 0 l 5
 -8 305 l 5
 140 305 l 5
 140 779 l 5
 -26 779 l 5
 -26 1072 l 5
 140 1072 l 5
 140 1167 l 6
 140 1436 257 1570 495 1570 c 4
 606 1570 832 1523 832 1523 c 5
EndSplineSet
Fore
SplineSet
1487 1385 m 0xec
 1487 1229 1358 1135 1200 1135 c 0
 1045 1135 923 1230 923 1385 c 0
 923 1540 1043 1630 1200 1630 c 0
 1361 1630 1487 1542 1487 1385 c 0xec
832 1523 m 1
 832 1212 l 1
 781 1221 740 1225 706 1225 c 0
 636 1225 618 1180 618 1107 c 0
 618 1096 618 1084 619 1072 c 1
 1487 1072 l 1
 1487 305 l 1
 1590 305 l 1
 1590 0 l 1
 895 0 l 1
 895 305 l 1
 1000 305 l 1
 1000 768 l 1
 627 768 l 1
 627 305 l 1
 800 305 l 1
 800 0 l 1
 -8 0 l 1
 -8 305 l 1
 140 305 l 1
 140 768 l 1
 -26 768 l 1
 -26 1072 l 1
 140 1072 l 1
 140 1167 l 2
 140 1436 289.958 1570 595 1570 c 4xda
 673.062 1570 832 1523 832 1523 c 1
EndSplineSet
LCarets2: 1 0 
Ligature2: "'liga' Standard Ligatures in Latin lookup 0-1" f i
EndChar

StartChar: fl
Encoding: 356 64258 243
Width: 1686
Flags: W
HStem: 0 305<46 194 681 857 955 1070 1557 1655> 768 304<28 194 681 887> 1225 345<683.192 1070>
VStem: 194 487<305 768 1072 1215.86> 1070 487<304 1225>
LayerCount: 2
Fore
SplineSet
1557 304 m 1
 1655 304 l 1
 1655 0 l 1
 955 0 l 1
 955 304 l 1
 1070 304 l 1
 1070 1225 l 1
 966.667 1225 863.333 1225 760 1225 c 0
 690 1225 672 1180 672 1107 c 0
 672 1096 672 1084 673 1072 c 1
 887 1072 l 1
 887 768 l 1
 681 768 l 1
 681 305 l 1
 857 305 l 1
 857 0 l 1
 46 0 l 1
 46 305 l 1
 194 305 l 1
 194 768 l 1
 28 768 l 1
 28 1072 l 1
 194 1072 l 1
 194 1167 l 2
 194 1436 311 1570 549 1570 c 2
 1557 1570 l 1
 1557 304 l 1
EndSplineSet
LCarets2: 1 0 
Ligature2: "'liga' Standard Ligatures in Latin lookup 0-1" f l
EndChar

StartChar: uniFB03
Encoding: 361 64259 244
Width: 2485
Flags: W
HStem: 0 305<46 194 681 857 922 1035 1522 1698 1763 1865 2352 2456> 768 304<28 194 681 1035 1522 1865> 1135.13 495<1902.9 2232.23> 1212 311<761.599 886 1602.6 1727> 1225 345<483.183 877.491 1324.18 1718.49>
VStem: 194 487<305 768 1072 1215.86> 1035 487<305 768 1072 1215.86> 1788 564<1247.53 1525.89> 1865 487<305.134 768.113>
LayerCount: 2
Fore
SplineSet
886 1523 m 1xd680
 886 1212 l 1xd680
 835 1221 794 1225 760 1225 c 0
 690 1225 672 1180 672 1107 c 0
 672 1096 672 1084 673 1072 c 1
 1035 1072 l 1
 1035 1167 l 2
 1035 1436 1178.37 1570 1470 1570 c 4xce80
 1554.65 1570 1727 1523 1727 1523 c 1
 1727 1212 l 1xd680
 1676 1221 1635 1225 1601 1225 c 0
 1531 1225 1513 1180 1513 1107 c 0
 1513 1096 1513 1084 1514 1072 c 1
 1756 1072.13 l 1
 1954.67 1072.13 2153.33 1072.13 2352 1072.13 c 1
 2352 305.134 l 1
 2456 305.134 l 1
 2456 0.133789 l 1
 1763 0.133789 l 1
 1763 305.134 l 1
 1865 305.134 l 1
 1865 768.113 l 1
 1522 768 l 1
 1522 305 l 1
 1698 305 l 1
 1698 0 l 1
 922 0 l 1
 922 305 l 1
 1035 305 l 1
 1035 768 l 1
 681 768 l 1
 681 305 l 1
 857 305 l 1
 857 0 l 1
 46 0 l 1
 46 305 l 1
 194 305 l 1
 194 768 l 1
 28 768 l 1
 28 1072 l 1
 194 1072 l 1
 194 1167 l 2
 194 1436 337.366 1570 629 1570 c 4xce80
 713.65 1570 886 1523 886 1523 c 1xd680
2352 1385.13 m 0xe7
 2352 1229.13 2223 1135.13 2065 1135.13 c 0
 1910 1135.13 1788 1230.13 1788 1385.13 c 0
 1788 1540.13 1908 1630.13 2065 1630.13 c 0
 2226 1630.13 2352 1542.13 2352 1385.13 c 0xe7
EndSplineSet
LCarets2: 2 0 0 
Ligature2: "'liga' Standard Ligatures in Latin lookup 0-1" f f i
EndChar

StartChar: uniFB04
Encoding: 362 64260 245
Width: 2475
Flags: HW
LayerCount: 2
Fore
SplineSet
1391 1608 m 0
 1492 1608 1701 1562 1701 1562 c 1
 1701 1251 l 1
 1662 1260 1630 1264 1605 1264 c 0
 1503 1264 1487 1191 1494 1072 c 1
 1673 1072 l 1
 1673 761 l 1
 1501 761 l 1
 1501 305 l 1
 1611 305 l 1
 1611 0 l 1
 931 0 l 1
 931 305 l 1
 1015 305 l 1
 1015 761 l 1
 626 761 l 1
 626 305 l 1
 736 305 l 1
 736 0 l 1
 56 0 l 1
 56 305 l 1
 140 305 l 1
 140 761 l 1
 56 761 l 1
 56 1072 l 1
 139 1072 l 1
 139 1074 138 1119 137 1207 c 1
 135 1203 l 1
 135 1472 262 1606 515 1606 c 0
 616 1606 825 1560 825 1560 c 1
 825 1249 l 1
 786 1258 754 1262 729 1262 c 0
 627 1262 611 1189 618 1070 c 1
 1013 1070 l 1
 1013 1072 1011 1117 1011 1205 c 0
 1011 1474 1138 1608 1391 1608 c 0
2354 305 m 1
 2432 305 l 1
 2432 0 l 1
 1785 0 l 1
 1785 305 l 1
 1859 305 l 1
 1859 1313 l 1
 1775 1313 l 1
 1775 1626 l 1
 2354 1626 l 1
 2354 305 l 1
EndSplineSet
EndChar

StartChar: invertedbreve
Encoding: 365 -1 248
Width: 924
Flags: HW
LayerCount: 2
Fore
SplineSet
462 1312 m 0
 373 1312 310 1246 310 1152 c 1
 58 1152 l 1
 56 1151 l 1
 56 1374 239 1496 461 1496 c 0
 684 1496 866 1374 866 1151 c 1
 614 1151 l 1
 614 1245 552 1312 462 1312 c 0
EndSplineSet
EndChar

StartChar: Delta
Encoding: 366 -1 249
Width: 1160
Flags: HW
LayerCount: 2
Fore
SplineSet
40 55 m 1
 360 1238 l 1
 833 1238 l 1
 1123 55 l 1
 1123 0 l 1
 40 0 l 1
 40 55 l 1
439 205 m 1
 819 205 l 1
 648 1080 l 1
 439 205 l 1
EndSplineSet
EndChar

StartChar: IJ
Encoding: 232 306 252
Width: 2234
Flags: HW
LayerCount: 2
Fore
SplineSet
904 1240 m 1
 757 1240 l 1
 757 359 l 1
 898 359 l 1
 898 0 l 1
 36 0 l 1
 36 359 l 1
 183 359 l 1
 183 1240 l 1
 40 1240 l 1
 40 1593 l 1
 904 1593 l 1
 904 1240 l 1
1394 365 m 0
 1276 365 1271 514 1271 633 c 1
 967 633 l 1
 967 -13 l 1
 1237 -13 l 1
 1274 79 l 1
 1333 6 1429 -30 1562 -30 c 0
 1871 -30 2058 167 2058 475 c 2
 2058 1240 l 1
 2205 1240 l 1
 2205 1593 l 1
 1351 1593 l 1
 1351 1240 l 1
 1505 1240 l 1
 1505 572 l 2
 1505 458 1489 365 1394 365 c 0
EndSplineSet
Ligature2: "'dlig' Discretionary Ligatures in Latin lookup 4-1" I J
EndChar

StartChar: kgreenlandic
Encoding: 238 312 254
Width: 1407
Flags: HW
LayerCount: 2
Fore
SplineSet
626 438 m 1
 626 0 l 1
 36 0 l 1
 36 305 l 1
 139 305 l 1
 139 1222 l 1
 35 1222 l 1
 35 1495 l 1
 626 1560 l 1
 626 587 l 1
 827 761 l 1
 732 761 l 1
 732 1072 l 1
 1366 1072 l 1
 1366 761 l 1
 1195 761 l 1
 1195 762 1023 618 1022 618 c 2
 1229 305 l 1
 1384 305 l 1
 1384 0 l 1
 911 0 l 1
 626 438 l 1
EndSplineSet
EndChar

StartChar: uni0311
Encoding: 340 785 255
Width: 926
Flags: HW
LayerCount: 2
Fore
SplineSet
463 1404 m 0
 374 1404 311 1338 311 1244 c 1
 59 1244 l 1
 59 1490 208 1621 462 1621 c 1
 464 1619 l 1
 715 1619 867 1487 867 1243 c 1
 615 1243 l 1
 615 1337 553 1404 463 1404 c 0
EndSplineSet
EndChar

StartChar: uni0326
Encoding: 341 806 256
Width: 593
Flags: HW
LayerCount: 2
Fore
SplineSet
35 -735 m 1
 34 -736 l 1
 35 -736 l 1
 35 -735 l 1
35 -736 m 1
 193 -736 225 -673 225 -513 c 1
 36 -513 l 1
 36 -147 l 1
 546 -147 l 1
 562 -250 570 -342 570 -424 c 0
 570 -793 403 -960 35 -960 c 1
 35 -736 l 1
EndSplineSet
EndChar

StartChar: uni030F
Encoding: 339 783 257
Width: 1011
Flags: HW
LayerCount: 2
Fore
SplineSet
477 1129 m 1
 54 1604 l 1
 314 1795 l 1
 621 1228 l 1
 477 1129 l 1
796 1128 m 1
 508 1695 l 1
 808 1814 l 1
 961 1188 l 1
 796 1128 l 1
EndSplineSet
EndChar

StartChar: uni00B5
Encoding: 115 181 366
Width: 1466
Flags: HW
LayerCount: 2
Fore
SplineSet
470 -278 m 1
 147 -278 l 1
 147 761 l 1
 31 761 l 1
 31 1032 l 1
 634 1092 l 1
 634 438 l 2
 634 378 668 318 724 318 c 0
 787 318 827 372 827 436 c 2
 827 761 l 1
 728 761 l 1
 728 1032 l 1
 1314 1092 l 1
 1314 305 l 1
 1434 305 l 1
 1434 0 l 1
 828 0 l 1
 828 156 l 1
 765 59 668 -28 569 -28 c 0
 536 -28 502 -19 470 4 c 1
 470 -278 l 1
EndSplineSet
EndChar

StartChar: dcroat
Encoding: 207 273 367
Width: 1419
Flags: HW
LayerCount: 2
Fore
SplineSet
1388 1187 m 1
 1388 1071 l 1
 1270 1071 l 1
 1270 305 l 1
 1387 305 l 1
 1387 0 l 1
 783 0 l 1
 783 128 l 1
 722 47 620 -18 488 -19 c 1
 184 -19 25 216 25 520 c 0
 25 936 464 1139 783 930 c 1
 783 1071 l 1
 576 1071 l 1
 576 1187 l 1
 783 1187 l 1
 783 1282 l 1
 629 1282 l 1
 629 1495 l 1
 1270 1560 l 1
 1270 1187 l 1
 1388 1187 l 1
496 528 m 0
 496 396 526 294 648 294 c 0
 716 294 761 335 783 370 c 1
 783 679 l 1
 666 813 496 739 496 528 c 0
EndSplineSet
EndChar

StartChar: No
Encoding: 371 -1 371
Width: 3098
Flags: W
HStem: 0 359<36 199 515 673> 0 166<1847 2884> 276 252<2264.77 2447.14> 983 262<2262.74 2449.25> 1100 352<42 199 1115 1273 1594 1752>
VStem: 199 316<360 878> 1273 321<647 1100> 1795 410.871<597.285 924.082> 2505.97 411.028<597.399 924.187>
LayerCount: 2
Fore
SplineSet
1847 166 m 25x4780
 2884 166 l 25
 2884 0 l 25
 1847 0 l 25
 1847 166 l 25x4780
2356 1245 m 0x3780
 2692.04 1245 2917 1076.85 2917 761 c 0
 2917 451.973 2692.97 276 2356 276 c 0
 2019.03 276 1795 451.973 1795 761 c 0
 1795 1076.85 2019.96 1245 2356 1245 c 0x3780
2356 528 m 0
 2454.11 528 2505.97 645.812 2505.97 761.539 c 0
 2505.97 873.241 2457.66 983 2356 983 c 0
 2254.41 983 2205.87 872.8 2205.87 760.867 c 0
 2205.87 645.357 2257.56 528 2356 528 c 0
1752 1100 m 1x8f80
 1594 1100 l 1
 1594 0 l 1
 988 0 l 1x4f80
 515 878 l 1
 515 360 l 1
 515 360 561 360 673 359 c 1
 673 0 l 1
 36 0 l 1
 36 359 l 1
 138 359 199 360 199 360 c 1
 199 1102 l 1
 42 1102 l 1
 42 1453 l 1
 777 1453 l 1
 1273 647 l 1
 1273 1100 l 1
 1115 1100 l 1
 1115 1452 l 1
 1752 1452 l 1
 1752 1100 l 1x8f80
EndSplineSet
LCarets2: 2 0 0 
Ligature2: "'dlig' Discretionary Ligatures in Latin lookup 3-1" N o period
EndChar

StartChar: t.fin
Encoding: 372 -1 372
Width: 1031
Flags: W
HStem: -18.4905 352.982<409.164 766.721> 768 304<19 139 626 805>
VStem: 139 487<352.02 768 1072 1301>
LayerCount: 2
Back
SplineSet
724 334 m 0
 754 334 790 339 832 348 c 1
 832 49 l 1
 738 6 615 -18 525 -18 c 0
 264 -18 139 115 139 382 c 2
 139 768 l 1
 17 768 l 1
 17 1072 l 1
 139 1072 l 1
 139 1301 l 1
 626 1406 l 1
 626 1072 l 1
 799 1072 l 1
 799 768 l 1
 626 768 l 1
 626 438 l 2
 626 377 657 334 724 334 c 0
EndSplineSet
Fore
SplineSet
524.644 -18.4905 m 0
 293.684 -18.4905 139 95.6402 139 378 c 2
 139 768 l 1
 19 768 l 1
 19 1072 l 1
 139 1072 l 1
 139 1301 l 1
 626 1406 l 1
 626 1072 l 1
 805 1072 l 1
 805 768 l 1
 626 768 l 1
 626 434 l 2
 626 367.866 665.158 334.491 728.852 334.491 c 0
 757.348 334.491 790.735 338.923 827.713 347.822 c 1
 864.275 75.1758 l 1
 772.917 12.7448 628.852 -18.4905 524.644 -18.4905 c 0
EndSplineSet
EndChar

StartChar: a.sc
Encoding: 381 -1 373
Width: 1516
VWidth: 0
Flags: W
HStem: 0 313<28 170 514 643 757 898 1382 1492> 433 211<583 803> 1014 308<198 390>
LayerCount: 2
Fore
SplineSet
864 433 m 1
 583 433 l 1
 514 313 l 1
 643 313 l 1
 643 0 l 1
 28 0 l 1
 28 313 l 1
 170 313 l 1
 390 1014 l 1
 198 1014 l 1
 198 1322 l 1
 1089 1322 l 1
 1382 314 l 1
 1492 314 l 1
 1492 0 l 1
 757 0 l 1
 757 313 l 1
 897 313 l 2
 898 313 898 314 898 315 c 0
 898 332 864 433 864 433 c 1
693 1024 m 1
 580 644 l 1
 803 644 l 1
 693 1024 l 1
EndSplineSet
EndChar

StartChar: b.sc
Encoding: 382 -1 374
Width: 1391
VWidth: 0
Flags: HW
LayerCount: 2
Fore
SplineSet
1302 974 m 0xf8
 1302 835 1205 737 1089 697 c 1
 1254 651 1363 541 1363 349 c 0xf4
 1363 84 1133 0 853 0 c 2
 31 0 l 1
 31 313 l 1
 182 313 l 1
 182 1014 l 1
 37 1014 l 1
 37 1322 l 1
 747 1322 l 2
 1058 1322 1302 1269 1302 974 c 0xf8
879 441 m 0
 879 531 814 566 706 566 c 0
 700 566 678 566 641 565 c 1
 641 313 l 1
 661 313 l 2
 777 313 879 319 879 441 c 0
872 908 m 0xf8
 872 972 822 1014 752 1014 c 2
 641 1014 l 1
 641 794 l 1
 677 794 l 2
 798 794 872 814 872 908 c 0xf8
EndSplineSet
EndChar

StartChar: c.sc
Encoding: 383 -1 375
Width: 1266
VWidth: 0
Flags: HW
LayerCount: 2
Fore
SplineSet
839 344 m 0xd8
 1001 344 1147 420 1211 479 c 1
 1211 117 l 1
 1051 24 878 -22 717 -22 c 0
 344 -22 26 212 26 668 c 0
 26 1041 214 1347 622 1347 c 0xd8
 763 1347 878 1323 953 1233 c 1
 982 1323 l 1
 1237 1323 l 1xb8
 1237 795 l 1
 977 795 l 1
 977 802 l 2
 977 927 912 1031 773 1031 c 0
 635 1031 551 867 551 703 c 0
 551 524 637 344 839 344 c 0xd8
EndSplineSet
EndChar

StartChar: d.sc
Encoding: 384 -1 376
Width: 1497
VWidth: 0
Flags: W
HStem: 0 313<37 178 655 840.094> 1015 307<31 178 655 840.824>
VStem: 178 477<313 1015> 953 518<442.531 890.605>
LayerCount: 2
Fore
SplineSet
1471 661 m 0
 1471 291 1199 0 736 0 c 2
 37 0 l 1
 37 313 l 1
 178 313 l 1
 178 1015 l 1
 31 1015 l 1
 31 1322 l 1
 755 1322 l 2
 1227 1322 1471 1100 1471 661 c 0
953 662 m 0
 953 849 906 1015 696 1015 c 2
 655 1015 l 1
 655 313 l 1
 686 313 l 2
 894 313 953 480 953 662 c 0
EndSplineSet
EndChar

StartChar: e.sc
Encoding: 385 -1 377
Width: 1183
VWidth: 0
Flags: W
HStem: 0 313<31 168 650 840> 586 229<650 829> 1014 308<31 168 650 836>
VStem: 168 482<313 586 815 1014>
LayerCount: 2
Fore
SplineSet
902 798 m 1
 836 1014 l 1
 650 1014 l 1
 650 815 l 1
 829 815 l 1
 829 586 l 1
 650 586 l 1
 650 313 l 1
 840 313 l 1
 908 552 l 1
 1145 552 l 1
 1145 0 l 1
 31 0 l 1
 31 313 l 1
 168 313 l 1
 168 1014 l 1
 31 1014 l 1
 31 1322 l 1
 1136 1322 l 1
 1136 798 l 1
 902 798 l 1
EndSplineSet
EndChar

StartChar: f.sc
Encoding: 386 -1 378
Width: 1163
VWidth: 0
Flags: HW
LayerCount: 2
Fore
SplineSet
836 560 m 1
 660 560 l 1
 660 313 l 1
 794 313 l 1
 794 0 l 1
 31 0 l 1
 31 313 l 1
 168 313 l 1
 168 1014 l 1
 31 1014 l 1
 31 1322 l 1
 1140 1322 l 1
 1140 792 l 1
 893 792 l 1
 838 1014 l 1
 660 1014 l 1
 660 784 l 1
 836 784 l 1
 836 560 l 1
EndSplineSet
EndChar

StartChar: g.sc
Encoding: 387 -1 379
Width: 1420
VWidth: 0
Flags: W
HStem: -24 355<683.828 991.452> 458 266<847 993> 1031 315<681.794 909.977>
VStem: 26 522<484.963 877.584> 993 398<341.389 458>
LayerCount: 2
Fore
SplineSet
548 667 m 0
 548 500 643 331 828 331 c 0
 914 331 993 350 993 350 c 1
 993 458 l 1
 847 458 l 1
 847 724 l 1
 1391 724 l 1
 1391 123 l 1
 1213 27 1001 -24 799 -24 c 0
 395 -24 26 175 26 657 c 0
 26 1023 255 1346 724 1346 c 0
 836 1346 928 1311 997 1230 c 1
 1026 1322 l 1
 1327 1322 l 1
 1327 816 l 1
 1059 816 l 1
 1022 964 927 1031 830 1031 c 0
 659 1031 548 896 548 667 c 0
EndSplineSet
EndChar

StartChar: h.sc
Encoding: 388 -1 380
Width: 1542
VWidth: 0
Flags: W
HStem: 0 313<31 159 653 737 814 887 1383 1511> 519 298<653 887> 1014 308<31 159 653 736 811 887 1383 1506>
VStem: 31 706<0 313 1014 1322> 159 494<313 519 817 1014> 814 697<0 313 1014 1322> 887 496<313 519 817 1014>
LayerCount: 2
Fore
SplineSet
31 313 m 1xf0
 159 313 l 1
 159 1014 l 1xe8
 31 1014 l 1
 31 1322 l 1xf0
 736 1322 l 1
 736 1014 l 1
 653 1014 l 1
 653 817 l 1
 887 817 l 1
 887 1014 l 1
 811 1014 l 1
 811 1322 l 1
 1506 1322 l 1
 1506 1014 l 1
 1383 1014 l 1
 1383 313 l 1xea
 1511 313 l 1
 1511 0 l 1
 814 0 l 1
 814 313 l 1xe4
 887 313 l 1
 887 519 l 1
 653 519 l 1
 653 313 l 1xea
 737 313 l 1
 737 0 l 1
 31 0 l 1
 31 313 l 1xf0
EndSplineSet
EndChar

StartChar: i.sc
Encoding: 389 -1 381
Width: 818
VWidth: 0
Flags: W
HStem: 0 313<31 159 659 782> 1014 308<35 159 659 788>
VStem: 31 751<0 313 1014 1322>
LayerCount: 2
Fore
SplineSet
788 1014 m 1
 659 1014 l 1
 659 313 l 1
 782 313 l 1
 782 0 l 1
 31 0 l 1
 31 313 l 1
 159 313 l 1
 159 1014 l 1
 35 1014 l 1
 35 1322 l 1
 788 1322 l 1
 788 1014 l 1
EndSplineSet
EndChar

StartChar: j.sc
Encoding: 390 -1 382
Width: 1127
VWidth: 0
Flags: HW
LayerCount: 2
Fore
SplineSet
396 319 m 0
 479 319 492 392 492 483 c 2
 492 1014 l 1
 358 1014 l 1
 358 1322 l 1
 1102 1322 l 1
 1102 1014 l 1
 974 1014 l 1
 974 388 l 2
 974 136 811 -25 542 -25 c 0
 426 -25 342 6 291 71 c 1
 259 -11 l 1
 23 -11 l 1
 23 532 l 1
 288 532 l 1
 288 437 293 319 396 319 c 0
EndSplineSet
EndChar

StartChar: k.sc
Encoding: 391 -1 383
Width: 1504
VWidth: 0
Flags: W
HStem: 0 313<31 158 635 746 1337.87 1469> 1014 307<31 158 635 746 1309 1428>
VStem: 31 715<0 313 1014 1321> 158 477<313 522 712 1014>
LayerCount: 2
Fore
SplineSet
879 254 m 2xd0
 879 399 l 2
 879 450 837 522 783 522 c 2
 635 522 l 1
 635 313 l 1xd0
 746 313 l 1
 752 0 l 1
 31 0 l 1
 31 313 l 1xe0
 158 313 l 1
 158 1014 l 1xd0
 31 1014 l 1
 31 1321 l 1
 746 1321 l 1
 746 1014 l 1xe0
 635 1014 l 1
 635 712 l 1
 885 1015 l 1
 885 1321 l 1
 1428 1321 l 1
 1428 1014 l 1
 1309 1014 l 1
 1032 695 l 1
 1032 684 l 1
 1202 684 1333 644 1333 493 c 2
 1333 384 l 2
 1333 354 1354 313 1391 313 c 2
 1469 313 l 1
 1474 0 l 1
 1171 0 l 2
 976 0 879 84 879 254 c 2xd0
EndSplineSet
EndChar

StartChar: l.sc
Encoding: 392 -1 384
Width: 1167
VWidth: 0
Flags: W
HStem: 0 313<36 159 653 820> 1014 307<31 159 653 787>
VStem: 159 494<313 1014>
LayerCount: 2
Fore
SplineSet
653 313 m 1
 820 313 l 1
 895 591 l 1
 1144 591 l 1
 1144 0 l 1
 36 0 l 1
 36 313 l 1
 159 313 l 1
 159 1014 l 1
 31 1014 l 1
 31 1321 l 1
 787 1321 l 1
 787 1014 l 1
 653 1014 l 1
 653 313 l 1
EndSplineSet
EndChar

StartChar: m.sc
Encoding: 393 -1 385
Width: 1987
VWidth: 0
Flags: W
HStem: 0 313<35 177 460 601 1257 1364 1822 1956> 1014 308<31 177 1822 1950>
VStem: 177 283<314 783> 1364 458<313 766>
LayerCount: 2
Fore
SplineSet
601 313 m 1
 601 0 l 1
 35 0 l 1
 35 313 l 1
 133 313 177 314 177 314 c 1
 177 1014 l 1
 31 1014 l 1
 31 1322 l 1
 758 1322 l 1
 1028 673 l 1
 1268 1322 l 1
 1950 1322 l 1
 1950 1014 l 1
 1822 1014 l 1
 1822 313 l 1
 1956 313 l 1
 1956 0 l 1
 1257 0 l 1
 1257 313 l 1
 1364 313 l 1
 1364 766 l 1
 1067 0 l 1
 822 0 l 1
 460 783 l 1
 460 314 l 1
 460 314 517 313 601 313 c 1
EndSplineSet
EndChar

StartChar: n.sc
Encoding: 394 -1 386
Width: 1553
VWidth: 0
Flags: W
HStem: 0 313<31 173 448 586> 1014 307<37 173 969 1107 1387 1524>
VStem: 173 275<314 713> 1107 280<535 1014>
LayerCount: 2
Fore
SplineSet
1524 1014 m 1
 1387 1014 l 1
 1387 0 l 1
 859 0 l 1
 448 713 l 1
 448 314 l 1
 448 314 489 314 586 313 c 1
 586 0 l 1
 31 0 l 1
 31 313 l 1
 120 313 173 314 173 314 c 1
 173 1016 l 1
 37 1016 l 1
 37 1322 l 1
 676 1322 l 1
 1107 535 l 1
 1107 1014 l 1
 969 1014 l 1
 969 1321 l 1
 1524 1321 l 1
 1524 1014 l 1
EndSplineSet
EndChar

StartChar: o.sc
Encoding: 395 -1 387
Width: 1481
VWidth: 0
Flags: W
HStem: -24 302<646.006 835.889> 1031 316<640.674 841.211>
VStem: 26 523<417.364 914.947> 932 523<417.364 914.947>
LayerCount: 2
Fore
SplineSet
741 278 m 0
 872 278 932 475 932 668 c 0
 932 853 877 1031 741 1031 c 0
 605 1031 549 853 549 668 c 0
 549 475 610 278 741 278 c 0
741 -24 m 0
 322 -24 26 268 26 662 c 0
 26 1074 301 1347 741 1347 c 0
 1181 1347 1455 1074 1455 662 c 0
 1455 268 1160 -24 741 -24 c 0
EndSplineSet
EndChar

StartChar: p.sc
Encoding: 396 -1 388
Width: 1383
VWidth: 0
Flags: HW
LayerCount: 2
Fore
SplineSet
785 459 m 0
 744 459 700 462 654 468 c 1
 654 313 l 1
 781 313 l 1
 781 0 l 1
 31 0 l 1
 31 313 l 1
 167 313 l 1
 167 1014 l 1
 36 1014 l 1
 36 1322 l 1
 777 1322 l 2
 1057 1322 1361 1260 1361 938 c 0
 1361 588 1155 459 785 459 c 0
728 1014 m 2
 655 1014 l 1
 655 744 l 1
 691 744 l 2
 822 744 888 795 888 897 c 0
 888 973 824 1014 728 1014 c 2
EndSplineSet
EndChar

StartChar: q.sc
Encoding: 397 -1 389
Width: 1527
VWidth: 0
Flags: HW
LayerCount: 2
Fore
SplineSet
740 -24 m 0
 321 -24 26 268 26 662 c 0
 26 1074 301 1347 741 1347 c 0
 1181 1347 1455 1078 1455 671 c 0
 1455 536 1420 413 1356 311 c 1
 1358 312 l 1
 1500 312 l 1
 1500 2 l 1
 944 2 l 1
 880 -15 811 -24 740 -24 c 0
741 278 m 0
 872 278 932 475 932 668 c 0
 932 853 877 1031 741 1031 c 0
 605 1031 549 853 549 668 c 0
 549 475 610 278 741 278 c 0
EndSplineSet
EndChar

StartChar: r.sc
Encoding: 398 -1 390
Width: 1475
VWidth: 0
Flags: HW
LayerCount: 2
Fore
SplineSet
1376 962 m 0
 1376 780 1237 692 1064 661 c 1
 1197 633 1305 589 1305 463 c 2
 1305 397 l 2
 1305 319 1358 312 1447 312 c 1
 1447 -1 l 1
 1165 -1 l 2
 994 -1 880 43 880 209 c 2
 880 361 l 2
 880 486 851 561 718 561 c 2
 633 561 l 1
 633 313 l 1
 738 313 l 1
 738 0 l 1
 585 0 349 1 32 0 c 1
 32 313 l 1
 166 313 l 1
 166 1013 l 1
 31 1013 l 1
 31 1321 l 1
 916 1321 l 2
 1201 1321 1376 1222 1376 962 c 0
898 894 m 0
 898 969 831 1013 733 1013 c 2
 627 1013 l 1
 627 759 l 1
 680 759 l 2
 798 759 898 789 898 894 c 0
EndSplineSet
EndChar

StartChar: s.sc
Encoding: 399 -1 391
Width: 1147
VWidth: 0
Flags: HW
LayerCount: 2
Fore
SplineSet
538 1044 m 0x1c
 474 1044 437 1017 437 969 c 0
 437 911 532 889 619 870 c 0
 891 812 1121 715 1121 410 c 0
 1121 166 947 -24 679 -24 c 0x9c
 528 -24 463 10 374 80 c 1
 343 0 l 1
 61 0 l 1
 61 425 l 1
 342 425 l 1x4c
 379 321 460 292 563 292 c 0
 626 292 684 316 684 362 c 0
 684 423 608 443 544 459 c 0
 263 531 29 620 29 946 c 0
 29 1183 213 1347 426 1347 c 0x9c
 564 1347 675 1322 760 1270 c 1
 763 1277 757 1322 789 1322 c 2
 1037 1322 l 1
 1037 907 l 1
 770 907 l 1x2c
 715 1012 655 1044 538 1044 c 0x1c
EndSplineSet
EndChar

StartChar: t.sc
Encoding: 400 -1 392
Width: 1355
VWidth: 0
Flags: W
HStem: 0 314<288 431 922 1065> 775 546<26 271 1086 1330> 1014 307<309 431 922 1049>
VStem: 431 491<314 1014>
LayerCount: 2
Fore
SplineSet
1086 775 m 1xd0
 1049 1014 l 1
 922 1014 l 1
 922 314 l 1
 1065 314 l 1
 1065 0 l 1
 288 0 l 1
 288 314 l 1
 431 314 l 1
 431 1014 l 1
 309 1014 l 1xb0
 271 775 l 1
 26 775 l 1
 26 1321 l 1
 1330 1321 l 1
 1330 775 l 1
 1086 775 l 1xd0
EndSplineSet
EndChar

StartChar: u.sc
Encoding: 401 -1 393
Width: 1441
VWidth: 0
Flags: W
HStem: -24 327<507.747 944.32> 1014 307<25 165 653 782 846 988 1281 1415>
VStem: 165 488<366.68 1014> 988 293<349.918 1014>
LayerCount: 2
Fore
SplineSet
165 576 m 2
 165 1014 l 1
 25 1014 l 1
 25 1321 l 1
 782 1321 l 1
 782 1014 l 1
 653 1014 l 1
 653 505 l 2
 653 395 697 303 818 303 c 0
 922 303 988 359 988 454 c 2
 988 1014 l 1
 846 1014 l 1
 846 1321 l 1
 1415 1321 l 1
 1415 1014 l 1
 1281 1014 l 1
 1281 425 l 2
 1281 148 1013 -24 714 -24 c 0
 312 -24 165 201 165 576 c 2
EndSplineSet
EndChar

StartChar: v.sc
Encoding: 402 -1 394
Width: 1466
VWidth: 0
Flags: W
HStem: 0 21G<453.767 969.844> 1014 307<0 144 655 749 863 976 1310 1467>
LayerCount: 2
Fore
SplineSet
749 1014 m 1
 655 1014 l 1
 838 425 l 1
 976 1013 l 1
 863 1013 l 1
 863 1321 l 1
 1467 1321 l 1
 1467 1014 l 1
 1310 1014 l 1
 963 0 l 1
 460 0 l 1
 144 1014 l 1
 0 1014 l 1
 0 1321 l 1
 749 1321 l 1
 749 1014 l 1
EndSplineSet
EndChar

StartChar: w.sc
Encoding: 403 -1 395
Width: 2170
VWidth: 0
Flags: HW
LayerCount: 2
Fore
SplineSet
0 1014 m 1
 0 1322 l 1
 775 1322 l 1
 775 1014 l 1
 644 1014 l 1
 778 551 l 1
 1005 1322 l 1
 1361 1322 l 1
 1581 577 l 1
 1709 1014 l 1
 1597 1014 l 1
 1597 1322 l 1
 2171 1322 l 1
 2171 1014 l 1
 2024 1014 l 1
 1726 0 l 1
 1256 0 l 1
 1088 579 l 1
 912 0 l 1
 445 0 l 1
 142 1014 l 1
 0 1014 l 1
EndSplineSet
EndChar

StartChar: x.sc
Encoding: 404 -1 396
Width: 1670
VWidth: 0
Flags: HW
LayerCount: 2
Fore
SplineSet
745 313 m 1
 745 0 l 1
 30 0 l 1
 30 313 l 1
 169 313 l 1
 546 697 l 1
 224 1014 l 1
 75 1014 l 1
 75 1322 l 1
 873 1322 l 1
 873 1014 l 1
 802 1014 l 1
 943 858 l 1
 1072 1014 l 1
 946 1014 l 1
 946 1322 l 1
 1596 1322 l 1
 1596 1014 l 1
 1425 1014 l 1
 1135 671 l 1
 1508 314 l 1
 1640 314 l 1
 1640 0 l 1
 832 0 l 1
 832 313 l 1
 942 313 l 1
 731 516 l 1
 551 313 l 1
 551 313 586 313 745 313 c 1
EndSplineSet
EndChar

StartChar: y.sc
Encoding: 405 -1 397
Width: 1422
VWidth: 0
Flags: W
HStem: 0 313<353 488 973 1109> 1014 307<24 122 686 766 843 971 1242 1397>
LayerCount: 2
Fore
SplineSet
971 1014 m 1
 843 1014 l 1
 843 1321 l 1
 1397 1321 l 1
 1397 1014 l 1
 1242 1014 l 1
 973 588 l 1
 973 313 l 1
 1109 313 l 1
 1109 0 l 1
 353 0 l 1
 353 313 l 1
 488 313 l 1
 488 546 l 1
 122 1014 l 1
 24 1014 l 1
 24 1321 l 1
 766 1321 l 1
 766 1014 l 1
 686 1014 l 1
 846 802 l 1
 971 1014 l 1
EndSplineSet
EndChar

StartChar: z.sc
Encoding: 406 -1 398
Width: 1293
VWidth: 0
Flags: HW
LayerCount: 2
Fore
SplineSet
1244 1034 m 1
 655 313 l 1
 924 313 l 1
 1017 580 l 1
 1262 580 l 1
 1262 0 l 1
 36 0 l 1
 36 305 l 1
 626 1014 l 1
 351 1014 l 1
 282 766 l 1
 31 766 l 1
 31 1321 l 1
 1244 1321 l 1
 1244 1034 l 1
EndSplineSet
EndChar

